<?xml version="1.0" encoding="utf-8"?>
<!-- Generator: Adobe Illustrator 25.1.0, SVG Export Plug-In . SVG Version: 6.00 Build 0)  -->
<svg version="1.1" id="Layer_1" xmlns="http://www.w3.org/2000/svg"
	 x="0px" y="0px"
	 width="32" height="32"
     viewBox="0 0 32 32" style="enable-background:new 0 0 32 32;"
     xml:space="preserve">
<style type="text/css">
	.st0{fill:#FFFFFF;}
	.st1{fill-rule:evenodd;clip-rule:evenodd;fill:#51E9D2;}
</style>
    <g>
	<path class="st0" d="M29.9,23.7c-1.2,2.4-3,4.3-5.3,5.6c-2.2,1.4-4.7,2.1-7.6,2.1s-5.4-0.7-7.6-2.1c-2.2-1.4-4-3.2-5.3-5.6
		s-1.8-5-1.8-7.8S3,10.5,4.4,8.1s3-4.3,5.3-5.6c2.2-1.4,4.7-2.1,7.6-2.1s5.4,0.7,7.6,2.1s4,3.2,5.3,5.6c1.2,2.4,1.9,5,1.9,7.8
		S31.2,21.3,29.9,23.7z M25,10.6c-0.8-1.6-1.8-2.8-3.2-3.8c-1.4-1-3-1.4-4.7-1.4c-1.8,0-3.3,0.4-4.7,1.4C11,7.7,10,9,9.3,10.6
		c-0.8,1.6-1.1,3.3-1.1,5.3s0.4,3.7,1.1,5.3c0.8,1.6,1.8,2.8,3.2,3.8c1.4,0.9,2.9,1.4,4.7,1.4s3.2-0.4,4.7-1.4
		c1.4-1,2.5-2.2,3.2-3.8c0.8-1.6,1.1-3.3,1.1-5.3C26.2,14,25.8,12.2,25,10.6z"/>
</g>
    <path class="st1" d="M28,17.5c-0.4,0-0.6,0.4-0.9,0.8c-0.4,0.4-0.5,0.7-0.9,1.1c-0.1,0.2-0.3,0.3-0.4,0.4c-0.3,0.4-0.5,0.8-0.8,1.1
	c-0.1,0.1-0.2,0.2-0.3,0.3c-0.4,0.4-0.7,0.8-1,1.1c-0.4,0.5-0.8,0.9-1.2,1.2c-0.4,0.4-0.8,0.6-1.1,1c-0.4,0.4-0.9,0.8-1.2,1.2
	c-0.3,0.3-0.5,0.5-1,0.7c0.1-0.2,0.1-0.3,0.3-0.4c0.4-0.4,0.7-0.7,1.1-1.1c0.2-0.2,0.4-0.4,0.5-0.5c0.1-0.1,0.3-0.2,0.4-0.3
	c0,0,0.1-0.1,0.1-0.2c0.2-0.4,0.4-0.5,0.7-0.8c0.2-0.2,0.4-0.4,0.5-0.6c0.3-0.4,0.6-0.7,1-1c0.2-0.2,0.4-0.4,0.5-0.6
	c0.4-0.5,0.9-1.1,1.2-1.6c0.4-0.4,0.6-0.9,0.9-1.3c0.2-0.3,0.4-0.6,0.6-0.9c0-0.1,0.1-0.1,0.1-0.2c0.3-0.2,0.4-0.4,0.7-0.6
	c0.2-0.3,0.4-0.4,0.6-0.6C28.3,16.4,28.2,16.9,28,17.5z M26.3,22.4c-0.1,0.1-0.2,0.3-0.4,0.4c-0.1,0.1-0.3,0.2-0.4,0.4
	c-0.3,0.4-0.6,0.6-0.9,1c-0.3,0.4-0.7,0.6-1,1.1c-0.1,0.1-0.2,0.2-0.3,0.3c-0.4,0.4-0.8,0.6-1.1,0.9c-0.2,0.1-0.4,0.2-0.5,0.3
	c-0.2,0.1-0.4,0.3-0.5,0.4c-0.2,0.1-0.3,0.2-0.4,0.3c-0.2,0.1-0.4,0.2-0.5,0.4c-0.2,0.2-0.4,0.2-0.6,0.4l-0.1-0.1
	c0.1-0.1,0.1-0.2,0.2-0.3c0.2-0.2,0.4-0.4,0.6-0.5c0.3-0.3,0.5-0.5,0.8-0.7c0.1-0.1,0.3-0.3,0.4-0.4c0.2-0.2,0.4-0.4,0.6-0.5
	c0.4-0.4,0.7-0.7,1.1-1c0.4-0.3,0.8-0.6,1.1-1c0.4-0.4,0.7-0.7,1.1-1.1c0.2-0.2,0.4-0.4,0.5-0.5c0.1-0.1,0.2-0.2,0.4-0.3
	c0.1,0.2,0.1,0.3,0.2,0.4C26.5,22.1,26.4,22.2,26.3,22.4z M19.2,24.2L19.2,24.2c0.4-0.5,0.8-1,1.1-1.4c0.3-0.3,0.5-0.6,0.8-0.9
	c1-1,1.7-2.1,2.5-3.1c0.4-0.4,0.7-1,1.2-1.4c0.3-0.3,0.6-0.5,0.8-0.9c0.3-0.2,0.4-0.5,0.5-0.7c0.2-0.2,0.4-0.4,0.5-0.5
	c0,0.4-0.2,0.5-0.4,0.8c-0.3,0.4-0.5,0.6-0.8,1c-0.1,0.2-0.3,0.3-0.4,0.4c-0.4,0.5-0.9,1-1.2,1.5c0,0-0.1,0.1-0.1,0.2
	c-0.1,0.2-0.2,0.4-0.4,0.5c-0.3,0.2-0.4,0.4-0.5,0.6c-0.3,0.4-0.4,0.6-0.7,1c-0.3,0.4-0.6,0.5-1,0.9c-0.3,0.4-0.5,0.7-0.8,1
	c-0.2,0.3-0.4,0.5-0.7,0.7c-0.1,0-0.1,0.2-0.2,0.2C19.4,24,19.3,24.1,19.2,24.2L19.2,24.2z M17.6,29.1c-0.1,0-0.3,0-0.4,0
	c0.1-0.2,0.2-0.4,0.4-0.5c0.2-0.1,0.2-0.3,0.4-0.4c0.1-0.1,0.2-0.2,0.4-0.4c0.1,0.4,0.2,0.6,0.3,0.9C18.2,28.8,17.9,28.9,17.6,29.1z
	 M15.4,27c-0.4,0.4-0.7,0.6-1.1,1c-0.2,0.2-0.4,0.4-0.6,0.6c-0.3,0.2-0.5,0.2-0.9,0.2c0-0.1,0-0.2,0.1-0.2c0.3-0.4,0.4-0.6,0.7-1
	c0.4-0.5,0.9-1.1,1.2-1.6c0.4-0.6,0.9-1.1,1.2-1.7c0.2-0.3,0.4-0.4,0.6-0.7c0.5-0.6,1.1-1.2,1.7-1.8c0.3-0.3,0.4-0.6,0.7-0.9
	c0.1-0.1,0.2-0.2,0.2-0.2c0.5-0.4,1.1-1,1.4-1.6c0.3-0.4,0.7-0.8,1-1.2c0.4-0.4,0.7-0.8,1.1-1.2c0.2-0.3,0.3-0.5,0.4-0.8
	c0.1-0.2,0.2-0.4,0.4-0.5c0.4-0.4,0.6-1,1.1-1.3c0.3-0.2,0.4-0.4,0.5-0.7c0.4-0.5,0.8-1,1.2-1.4c0.3-0.3,0.5-0.5,0.7-0.8
	c0.2-0.3,0.4-0.3,0.5,0.1c0.1,0.2,0.1,0.3,0.2,0.4c-0.4,0.3-0.6,0.4-1,0.6c-0.2,0.2-0.4,0.4-0.5,0.6c-0.4,0.6-0.8,1.2-1.2,1.8
	c-0.4,0.4-0.6,0.9-1,1.3c-0.4,0.4-0.8,0.9-1.1,1.3c-0.4,0.5-0.8,1.1-1.1,1.6c-0.6,0.8-1.2,1.5-1.8,2.2c-0.8,1-1.7,1.9-2.5,2.9
	c-0.4,0.5-0.8,1.1-1.1,1.7C16.2,26.3,15.8,26.7,15.4,27z M14.8,29.4C14.8,29.4,14.7,29.4,14.8,29.4c-0.2-0.1-0.1-0.2,0-0.3
	C14.9,29.2,14.9,29.3,14.8,29.4z M12.4,26.9L12.4,26.9c0-0.2,0-0.3,0.1-0.4c0.2-0.3,0.4-0.5,0.5-0.8c0.2-0.3,0.4-0.4,0.4-0.7
	c0.3-0.5,0.8-1,1.1-1.5c0.4-0.4,0.7-1,1.1-1.4c0.1-0.2,0.2-0.3,0.4-0.4c0.4-0.4,0.8-0.7,1.1-1.1c0.4-0.4,0.8-1,1.1-1.5
	c0.2-0.3,0.4-0.5,0.5-0.9c0.3-0.4,0.5-0.9,0.8-1.2c0.3-0.4,0.5-0.6,0.8-1c0.2-0.3,0.4-0.4,0.5-0.7c0.2-0.4,0.4-0.6,0.8-0.9
	c0.3-0.3,0.5-0.6,0.8-0.9c0.4-0.4,0.7-0.8,1.1-1.2c0.2-0.2,0.4-0.4,0.6-0.5c0.2-0.2,0.4-0.4,0.4-0.6c0.1-0.4,0.1-0.8-0.4-1.1
	c0.1-0.2,0.2-0.3,0.3-0.4c0.1-0.2,0.2-0.2,0.4-0.2c0.5,0,0.8-0.4,1-0.8c0-0.1,0.1-0.2,0.1-0.3c0,0,0,0,0.1,0c0.4,0.3,0.5,0.6,0.7,1
	c-0.1,0.3-0.4,0.4-0.6,0.6c-0.3,0.1-0.4,0.4-0.5,0.6c-0.4,0.4-0.8,1-1.2,1.4c-0.2,0.3-0.4,0.5-0.6,0.6c-0.4,0.4-0.6,0.8-0.9,1.2
	c-0.6,1.2-1.5,2.3-2.4,3.3c-0.5,0.6-1.1,1.3-1.6,1.9c-0.4,0.5-0.9,1.1-1.3,1.6c-0.4,0.4-0.8,1-1.1,1.4c-0.4,0.5-1,1.1-1.5,1.7
	c-0.2,0.3-0.4,0.4-0.5,0.7c-0.3,0.3-0.5,0.6-0.8,0.9s-0.4,0.5-0.6,0.8C12.9,26.6,12.6,26.8,12.4,26.9z M10.8,24.4
	c-0.4,0.3-0.6,0.6-0.7,1.1C10,25.6,9.9,25.8,9.8,26c-0.2,0.3-0.4,0.5-0.7,0.6c-0.5,0.2-0.8,0.6-1.1,1.1c-0.1,0.1,0,0.3-0.1,0.4
	c-0.1,0-0.2,0.1-0.3,0.1c0-0.1-0.1-0.2-0.1-0.3c0.1-0.3,0.2-0.5,0.4-0.7c0.4-0.4,0.7-0.7,1-1.1c0.2-0.2,0.4-0.4,0.4-0.5
	c0.4-0.5,0.7-1,1.1-1.5c0.3-0.4,0.5-0.7,0.8-1.1c0.3-0.4,0.5-0.7,0.8-1.1c0.2-0.3,0.4-0.4,0.7-0.6c0.4-0.2,0.6-0.4,1-0.7
	c0.5-0.4,0.9-0.9,1.2-1.5c0-0.1,0.1-0.2,0.2-0.2c0.4-0.4,0.5-0.9,0.9-1.3c0.3-0.5,0.5-1,1-1.4c0.4-0.4,0.6-0.8,1.1-1.2
	c0,0,0.1-0.1,0.1-0.2c0.2-0.4,0.4-0.6,0.7-1c0.2-0.3,0.4-0.5,0.6-0.8c0.4-0.5,0.8-1.1,1.2-1.6c0.4-0.4,0.8-0.9,1.1-1.3
	c0.4-0.6,1.1-1.1,1.6-1.5l0.1-0.1c0.1,0,0.2,0,0.2,0c0.2,0.1,0.1,0.3,0,0.4c-0.2,0.3-0.4,0.5-0.6,0.8c-0.5,0.5-1.1,1.1-1.8,1.7
	c-0.5,0.4-0.9,1-1.2,1.6c-0.6,1-1.2,1.9-1.9,2.8c-0.4,0.4-0.8,1-1.1,1.4c-0.4,0.4-0.6,0.9-1,1.3c-0.4,0.4-0.7,1-1.1,1.4
	c-0.4,0.4-0.8,0.9-1.1,1.3c-0.5,0.5-1.1,1.1-1.6,1.7C11.7,23.4,11.3,23.9,10.8,24.4z M10.4,29.3c-0.1-0.4,0-0.4,0.4-0.6
	c0,0.3,0,0.5,0.1,0.8C10.7,29.4,10.6,29.3,10.4,29.3z M6.5,27c-0.3,0.2-0.4,0.3-0.6,0.1l0,0C5.9,27,6,26.9,6.2,26.9
	c0.3,0,0.4-0.2,0.5-0.4s0.4-0.6,0.5-0.9c0.1-0.2,0.2-0.4,0.3-0.5c0.4-0.8,1-1.4,1.6-2.1c0.5-0.6,1.1-1.2,1.6-1.8
	c0.6-0.7,1.1-1.4,1.7-2.1c0.3-0.4,0.6-0.6,1-0.9c0,0.3-0.2,0.4-0.3,0.6c-0.4,0.5-0.8,1.1-1.2,1.7c-1,1.3-1.8,2.6-2.9,4
	c-0.4,0.5-0.9,1.1-1.4,1.6C7.3,26.2,6.9,26.6,6.5,27z M4.9,24c-0.2,0-0.2-0.2-0.1-0.4c0.1-0.2,0.1-0.3,0.3-0.4
	c0.4-0.4,0.6-0.9,0.8-1.3c0.4-0.7,0.7-1.3,1.1-2c0.3-0.4,0.5-0.7,0.8-1.1c0.4-0.5,0.9-1.1,1.2-1.7C9,17,9,17,9.1,16.9c0,0,0,0,0.1,0
	c0,0.1,0,0.1-0.1,0.2c-0.9,1.3-1.6,2.7-2.4,4.1c-0.4,0.6-0.8,1.2-1.1,1.8C5.5,23.5,5.3,23.8,4.9,24z M3.5,21
	c-0.1,0.1-0.2,0.2-0.3,0.3c-0.3-0.4-0.4-0.6-0.4-1c0-0.1,0.1-0.3,0.2-0.4c0.3-0.4,0.5-0.6,0.7-1c0.3-0.4,0.6-0.8,1.1-1.1
	c0.1-0.1,0.2-0.2,0.2-0.3c0.3-0.5,0.5-1.1,0.8-1.6c0.2-0.4,0.4-0.8,0.7-1.1c0.3-0.4,0.5-0.8,0.8-1.2c0.3-0.5,0.6-1,0.9-1.4
	c0.5-0.9,1.1-1.6,1.8-2.4c0.4-0.6,0.8-1.2,1.2-1.8c0.4-0.5,0.7-1.1,1.1-1.7c0.2-0.3,0.4-0.6,0.7-0.5C13,5.5,13.1,5.3,13.3,5
	c0.1-0.2,0.4-0.4,0.6-0.4c0.1,0,0.2-0.1,0.3-0.2c0-0.3,0.1-0.6,0-1c0-0.1-0.1-0.2-0.1-0.3c0.2-0.3,0.4-0.2,0.6-0.2
	c0.5,0,1.1,0,1.8-0.1c-0.1,0.6-0.2,1.1,0.4,1.5c-0.2,0.2-0.3,0.4-0.4,0.6c0-0.3-0.1-0.4-0.1-0.6S16.2,4,16.1,4
	c-0.4-0.3-0.5-0.3-0.7,0.1c-0.3,0.4-0.4,0.8-0.7,1.2c-0.7,1.1-1.7,2.1-2.5,3.1c-1.1,1.1-2,2.3-2.6,3.7c-0.4,0.9-0.8,1.7-1.3,2.4
	c-0.4,0.4-0.7,0.9-1,1.3c-0.4,0.8-0.9,1.5-1.3,2.3C5.2,19.1,4.5,20.1,3.5,21z M4.3,10.3c0.1-0.1,0.2-0.2,0.4-0.3
	c0,0.3-0.3,0.6-0.5,0.9C4,10.6,4.1,10.5,4.3,10.3z M5.3,11.8c-0.3,0.8-0.6,1.5-1.1,2.1c0-0.4,0.1-0.6,0.3-0.9
	c0.1-0.2,0.2-0.4,0.4-0.5C5,12.2,5.2,11.9,5.3,11.8z M7,8.5c0,0,0.1-0.1,0.1-0.2c0.2-0.5,0.6-0.8,1.1-1.1c0.2-0.1,0.3-0.3,0.3-0.4
	c0.1-0.3,0-0.4-0.4-0.7C8.1,6,8.1,6,8.1,6C8.5,5.8,8.8,5.4,9,5.3C9.4,5,9.7,4.7,10.1,4.6c0.6-0.3,1.3-0.4,1.9-0.8
	c0.1-0.1,0.2-0.1,0.3-0.1c-0.1,0.4-0.4,0.6-0.6,0.9c-0.2,0.3-0.4,0.5-0.5,0.8s-0.4,0.5-0.6,0.9c-0.1-0.1-0.2-0.2-0.3-0.3
	c-0.1-0.1-0.1-0.2-0.2-0.2C9.7,5.5,9.5,5.5,9.4,6C9.2,6.3,9.1,6.6,8.8,6.8C8,7.9,7.2,9,6.5,10.1c0,0.1-0.1,0.1-0.2,0.2
	C6.4,9.6,6.6,9,7,8.5z M15.2,6.4c0.3-0.5,0.6-1,1.1-1.3l0.1,0.1C16,5.6,15.6,6.1,15.2,6.4C15.3,6.5,15.3,6.4,15.2,6.4z M18.9,4.4
	c0-0.1-0.1-0.2-0.1-0.2c0-0.3-0.2-0.4-0.4-0.5c-0.2-0.1-0.4-0.2-0.5-0.1c-0.2,0-0.3,0.1-0.4,0.2c-0.1-0.2-0.2-0.4-0.3-0.6
	c0.3,0.1,0.4,0,0.6,0.2c0.1,0.1,0.2,0.1,0.3,0c0.4-0.1,0.9,0.1,1.2,0.4c0.2,0.2,0.4,0.4,0.6,0.5c0,0.3-0.2,0.4-0.4,0.5
	c-1,1-1.8,1.8-2.8,2.8c-0.3,0.4-0.5,0.7-0.8,1.1c-0.6,0.8-1.2,1.6-1.9,2.4c-0.4,0.5-0.8,1.1-1.3,1.6c-0.7,0.8-1.3,1.5-2,2.3
	c0.5-1.1,1.1-2.1,1.9-3.1c0.6-0.8,1.1-1.6,1.8-2.3c0.6-0.8,1.3-1.6,2-2.4c0.3-0.4,0.6-0.7,0.9-1.1c0.4-0.5,0.9-0.7,1.5-0.9
	C18.9,4.9,19.1,4.7,18.9,4.4z M20.3,6.1c0.1,0,0.2,0,0.3,0.1c0.2,0.1,0.3,0.2,0.2,0.4c0,0.1-0.1,0.3-0.2,0.4c-0.5,0.6-1.1,1.3-1.6,2
	c-0.4,0.6-0.9,1.2-1.3,1.9c-0.8,1.1-1.7,2.2-2.7,3.2c-0.6,0.5-1.1,1.2-1.7,1.8c-0.2,0.3-0.4,0.5-0.6,0.8c-0.6,0.7-1.2,1.4-1.8,2.1
	C10.2,19.5,9.6,20.3,9,21c-0.4,0.4-0.7,0.9-1.1,1.2c0.1-0.3,0.2-0.4,0.4-0.7c0.3-0.4,0.5-0.8,0.7-1.2c0.5-1,1.1-1.9,1.8-2.8
	c0.7-0.9,1.3-1.8,2.1-2.6C14,13.6,15,12.3,16,11c0.5-0.7,1.1-1.4,1.7-2.1c0.3-0.4,0.6-0.7,1-1.1c0.2-0.2,0.4-0.4,0.5-0.6
	c0.3-0.3,0.5-0.5,0.8-0.7C20.1,6.3,20.2,6.1,20.3,6.1z M22.1,6.9c0.1-0.2,0.2-0.4,0.3-0.6c0.4,0.3,0.3,0.6,0,0.8c-0.1,0-0.2,0-0.2,0
	C22.1,7,22.1,6.9,22.1,6.9z M24.2,6.6c0.1,0.1,0.3,0.2,0.4,0.3c0.2,0.2,0.1,0.3,0,0.4c-0.1,0.1-0.2,0-0.2-0.1
	C24.3,6.9,24.2,6.8,24.2,6.6C24.2,6.7,24.2,6.6,24.2,6.6z M30.6,14.7L30.6,14.7c0-0.2,0-0.4-0.1-0.5c-0.1-0.6-0.3-1.3-0.4-1.9
	c-0.3-1-0.5-1.9-1.1-2.8c-0.4-0.6-0.7-1.1-1.2-1.6c-0.2-0.2-0.4-0.4-0.4-0.6C27.2,7,27,6.8,26.9,6.7c-0.4-0.4-0.6-0.7-1-1
	c-0.3-0.2-0.4-0.4-0.7-0.6c-0.4-0.3-0.6-0.5-1-0.8c-0.1-0.1-0.2-0.1-0.3-0.2c-0.3-0.3-0.5-0.4-0.9-0.6c-0.5-0.3-1.1-0.5-1.5-1
	s-1-0.6-1.5-0.8c-0.3-0.1-0.5-0.1-0.8-0.2c-0.6-0.2-1.2-0.4-1.9-0.4c-0.1,0-0.1,0-0.2,0c-0.3,0-0.5-0.1-0.8-0.1c-0.4,0-1,0-1.4,0.1
	c-0.3,0-0.5,0-0.7,0.1c-0.7,0.4-1.5,0.4-2.3,0.6C11.7,2,11.4,2.2,11,2.4C10.5,2.5,10.2,2.8,9.7,3C9.5,3.1,9.5,3.2,9.3,3.2
	C8.9,3.5,8.5,3.8,8.1,4c-0.4,0.2-0.7,0.4-1,0.8C6.8,5,6.5,5.4,6.1,5.6C5.8,5.9,5.5,6.1,5.2,6.4C4.9,6.7,4.7,6.9,4.4,7.1
	C3.9,7.3,3.7,7.7,3.4,8C3.1,8.2,3,8.4,2.7,8.7C2.5,9,2.3,9.1,2.2,9.5C2.1,9.7,2.1,9.8,2,10c-0.4,0.5-0.6,1.1-0.7,1.7
	c0,0.1,0,0.1-0.1,0.1C1,11.9,1,12,1,12.2c0,0.3-0.1,0.4-0.2,0.7c-0.1,0.5-0.3,1.1-0.4,1.7c-0.1,0.3,0,0.5-0.1,0.8
	c-0.2,0.6-0.4,1.2-0.4,1.8c0,0.4,0,0.8,0.1,1.2c0,0.3,0,0.5,0.1,0.7c0,0.3,0,0.5,0.1,0.8c0.2,0.5,0.1,1.1,0.4,1.6c0,0,0,0.1,0,0.2
	c0.1,0.3,0.1,0.6,0.2,0.9C0.9,23,1,23.4,1.3,23.6v0.2c0,0.1,0.1,0.3,0.1,0.4c0,0.1,0.1,0.2,0.1,0.3c0,0.3,0.1,0.4,0.3,0.5
	c0.3,0.3,0.4,0.7,0.7,1c0.2,0.3,0.4,0.5,0.5,0.8c0.2,0.3,0.3,0.5,0.4,0.8c0.2,0.3,0.3,0.5,0.4,0.9c0.1,0.1,0.2,0.2,0.3,0.3
	c0.1,0.1,0.2,0.1,0.3,0.2c0.4,0.3,0.8,0.6,1.1,1c-0.1-0.2-0.1-0.1,0-0.1c0.4,0.2,0.8,0.3,1.2,0.4c0.1,0,0.3,0,0.4,0.1
	c0.7,0.4,1.4,0.7,2.2,0.8c0.4,0.1,0.7,0.2,1.1,0.2c0.5,0,1.1,0.1,1.7,0.3c0.7,0.2,1.4,0.3,2,0.2c0.4,0,0.9-0.1,1.3-0.2
	c0.3,0,0.5,0,0.8-0.1c0.4-0.1,0.9-0.3,1.3-0.4c0.2-0.1,0.4-0.1,0.5-0.1c0,0,0.1,0,0.2,0c0.5-0.2,1-0.4,1.4-0.7
	c0.1-0.1,0.2-0.1,0.3-0.1c0.6-0.2,1.1-0.5,1.7-0.9c0.4-0.3,0.8-0.6,1.2-0.9s0.9-0.6,1.3-0.9c0,0,0,0,0.1-0.1
	c0.2-0.2,0.4-0.4,0.6-0.5c0.4-0.3,0.7-0.6,1-1.1c0.1-0.2,0.3-0.3,0.4-0.4c0.4-0.4,0.7-0.8,1.1-1.1c0.3-0.3,0.5-0.5,0.8-0.8
	c0.1-0.2,0.3-0.3,0.4-0.4c0.2-0.4,0.4-0.9,0.4-1.4c0.1-0.4,0.3-0.7,0.5-1c0.3-0.4,0.5-0.6,0.6-1.1c0-0.1,0.1-0.3,0.2-0.4
	c0.2-0.4,0.4-0.7,0.4-1.1c0-0.2,0-0.4,0-0.6c0.1-0.4,0.2-0.9,0.2-1.3C30.6,15.9,30.6,15.3,30.6,14.7z"/>
</svg>
