<?xml version="1.0" encoding="utf-8"?>
<!-- Generator: Adobe Illustrator 25.1.0, SVG Export Plug-In . SVG Version: 6.00 Build 0)  -->
<svg version="1.1" id="Layer_1" xmlns="http://www.w3.org/2000/svg"
     x="0px" y="0px"
     width="150" height="100"
     viewBox="0 0 95 32" style="enable-background:new 0 0 95 32;"
     xml:space="preserve">
<style type="text/css">
	.st0{fill:#FFFFFF;}
	.st1{fill-rule:evenodd;clip-rule:evenodd;fill:#51E9D2;}
</style>
    <g>
	<path class="st0" d="M60.3,21.9c0.2,0.2,0.3,0.5,0.3,0.8c0,0.3-0.1,0.6-0.3,0.8c-0.2,0.2-0.5,0.3-0.8,0.3h-6
		c-0.3,0-0.6-0.1-0.8-0.3c-0.2-0.2-0.3-0.5-0.3-0.8V12c0-0.3,0.1-0.6,0.3-0.8c0.2-0.2,0.5-0.3,0.8-0.3c0.3,0,0.6,0.1,0.8,0.3
		c0.2,0.2,0.3,0.5,0.3,0.8v9.6h4.8C59.8,21.6,60.1,21.7,60.3,21.9z"/>
        <path class="st0" d="M71.3,14c0.2,0.2,0.3,0.5,0.3,0.8v7.8c0,0.3-0.1,0.6-0.3,0.8c-0.2,0.2-0.5,0.3-0.8,0.3c-0.3,0-0.6-0.1-0.8-0.3
		c-0.2-0.2-0.3-0.5-0.3-0.8c-0.3,0.4-0.7,0.7-1.2,0.9c-0.5,0.3-1.1,0.4-1.7,0.4c-0.8,0-1.6-0.2-2.3-0.7c-0.7-0.4-1.2-1-1.6-1.8
		c-0.4-0.8-0.6-1.7-0.6-2.6c0-1,0.2-1.9,0.6-2.6c0.4-0.8,0.9-1.4,1.6-1.8c0.7-0.4,1.4-0.7,2.3-0.7c0.6,0,1.1,0.1,1.7,0.3
		c0.5,0.2,1,0.5,1.3,0.8v0c0-0.3,0.1-0.6,0.3-0.8c0.2-0.2,0.5-0.3,0.8-0.3C70.8,13.7,71.1,13.8,71.3,14z M68.8,21
		c0.5-0.6,0.8-1.3,0.8-2.2s-0.3-1.6-0.8-2.2c-0.5-0.6-1.2-0.9-2-0.9c-0.8,0-1.4,0.3-1.9,0.9c-0.5,0.6-0.8,1.3-0.8,2.2
		s0.2,1.6,0.7,2.2c0.5,0.6,1.1,0.9,1.9,0.9C67.6,21.9,68.2,21.6,68.8,21z"/>
        <path class="st0" d="M81.9,14.8c0.5,0.7,0.7,1.8,0.7,3.1v4.7c0,0.3-0.1,0.6-0.3,0.8c-0.2,0.2-0.5,0.3-0.8,0.3
		c-0.3,0-0.6-0.1-0.8-0.3c-0.2-0.2-0.3-0.5-0.3-0.8v-4.7c0-0.7-0.1-1.2-0.4-1.6c-0.3-0.4-0.8-0.6-1.5-0.6c-0.7,0-1.3,0.2-1.7,0.6
		c-0.4,0.4-0.6,0.9-0.6,1.6v4.7c0,0.3-0.1,0.6-0.3,0.8c-0.2,0.2-0.5,0.3-0.8,0.3c-0.3,0-0.6-0.1-0.8-0.3c-0.2-0.2-0.3-0.5-0.3-0.8
		V15c0-0.3,0.1-0.6,0.3-0.8c0.2-0.2,0.5-0.3,0.8-0.3c0.3,0,0.6,0.1,0.8,0.3c0.2,0.2,0.3,0.5,0.3,0.8v0.3c0.3-0.4,0.8-0.8,1.3-1.1
		c0.5-0.3,1.1-0.5,1.8-0.5C80.6,13.7,81.4,14.1,81.9,14.8z"/>
        <path class="st0" d="M93.8,10.4c0.2,0.2,0.3,0.5,0.3,0.8v11.4c0,0.3-0.1,0.6-0.3,0.8c-0.2,0.2-0.5,0.3-0.8,0.3
		c-0.3,0-0.6-0.1-0.8-0.3c-0.2-0.2-0.3-0.5-0.3-0.8c-0.3,0.4-0.7,0.7-1.2,0.9c-0.5,0.3-1.1,0.4-1.7,0.4c-0.8,0-1.6-0.2-2.3-0.7
		c-0.7-0.4-1.2-1-1.6-1.8c-0.4-0.8-0.6-1.7-0.6-2.6c0-1,0.2-1.9,0.6-2.6c0.4-0.8,0.9-1.4,1.6-1.8c0.7-0.4,1.4-0.7,2.3-0.7
		c0.6,0,1.1,0.1,1.7,0.3c0.5,0.2,1,0.5,1.3,0.8v-3.6c0-0.3,0.1-0.6,0.3-0.8c0.2-0.2,0.5-0.3,0.8-0.3C93.3,10.1,93.6,10.2,93.8,10.4z
		 M91.2,21c0.5-0.6,0.8-1.3,0.8-2.2s-0.3-1.6-0.8-2.2c-0.5-0.6-1.2-0.9-2-0.9c-0.8,0-1.4,0.3-1.9,0.9c-0.5,0.6-0.8,1.3-0.8,2.2
		s0.2,1.6,0.7,2.2c0.5,0.6,1.1,0.9,1.9,0.9C90.1,21.9,90.7,21.6,91.2,21z"/>
</g>
    <g>
	<path class="st0" d="M18.8,23.4c-0.2,0.2-0.5,0.3-0.8,0.3c-0.3,0-0.6-0.1-0.8-0.3c-0.2-0.2-0.3-0.5-0.3-0.8V11.2
		c0-0.3,0.1-0.6,0.3-0.8c0.2-0.2,0.5-0.3,0.8-0.3c0.3,0,0.6,0.1,0.8,0.3c0.2,0.2,0.3,0.5,0.3,0.8v11.4C19.1,22.9,19,23.2,18.8,23.4z
		"/>
        <path class="st0" d="M21.8,12.5c-0.2-0.1-0.3-0.4-0.3-0.7v-0.4c0-0.3,0.1-0.6,0.3-0.7c0.2-0.1,0.5-0.2,0.9-0.2
		c0.4,0,0.7,0.1,0.9,0.2c0.2,0.1,0.3,0.4,0.3,0.7v0.4c0,0.4-0.1,0.6-0.3,0.7c-0.2,0.1-0.5,0.2-0.9,0.2
		C22.2,12.7,21.9,12.6,21.8,12.5z M23.5,23.4c-0.2,0.2-0.5,0.3-0.8,0.3c-0.3,0-0.6-0.1-0.8-0.3c-0.2-0.2-0.3-0.5-0.3-0.8V15
		c0-0.3,0.1-0.6,0.3-0.8c0.2-0.2,0.5-0.3,0.8-0.3c0.3,0,0.6,0.1,0.8,0.3c0.2,0.2,0.3,0.5,0.3,0.8v7.6C23.8,22.9,23.7,23.2,23.5,23.4
		z"/>
        <path class="st0" d="M34.4,14.2c0.2,0.2,0.3,0.4,0.3,0.7c0,0.1,0,0.3-0.1,0.6l-3.4,7.6c-0.1,0.2-0.2,0.4-0.4,0.5
		c-0.2,0.1-0.4,0.2-0.6,0.2l-0.2,0c-0.2,0-0.4-0.1-0.6-0.2c-0.2-0.1-0.3-0.3-0.4-0.5l-3.4-7.6c-0.1-0.2-0.1-0.4-0.1-0.6
		c0-0.2,0.1-0.5,0.3-0.7c0.2-0.2,0.5-0.3,0.8-0.3c0.2,0,0.4,0.1,0.6,0.2c0.2,0.1,0.3,0.3,0.4,0.5l2.5,5.8l2.5-5.8
		c0.1-0.2,0.2-0.4,0.4-0.5c0.2-0.1,0.4-0.2,0.6-0.2C33.9,13.9,34.2,14,34.4,14.2z"/>
        <path class="st0" d="M44.9,19.3c-0.2,0.2-0.5,0.3-0.8,0.3H38c0.1,0.7,0.5,1.3,1,1.7c0.5,0.4,1.1,0.6,1.8,0.6c0.5,0,0.9,0,1.2-0.1
		c0.3-0.1,0.5-0.2,0.7-0.3c0.2-0.1,0.3-0.2,0.3-0.2c0.2-0.1,0.4-0.2,0.6-0.2c0.3,0,0.5,0.1,0.7,0.3s0.3,0.4,0.3,0.6
		c0,0.3-0.2,0.6-0.5,0.9c-0.3,0.3-0.8,0.5-1.4,0.7c-0.6,0.2-1.2,0.3-1.8,0.3c-1,0-1.9-0.2-2.7-0.6c-0.8-0.4-1.4-1-1.8-1.8
		c-0.4-0.8-0.6-1.6-0.6-2.6c0-1.1,0.2-2,0.7-2.8c0.4-0.8,1-1.4,1.8-1.8c0.7-0.4,1.5-0.6,2.3-0.6c0.8,0,1.6,0.2,2.3,0.7
		c0.7,0.4,1.3,1,1.7,1.8c0.4,0.7,0.6,1.6,0.6,2.4C45.2,18.9,45.1,19.1,44.9,19.3z M38.1,17.7h4.8v-0.1c0-0.5-0.3-1-0.8-1.3
		c-0.5-0.4-1-0.6-1.5-0.6C39.2,15.7,38.3,16.4,38.1,17.7z"/>
</g>
    <path class="st1" d="M13.8,17.5c-0.2,0-0.3,0.2-0.4,0.4c-0.2,0.2-0.3,0.3-0.4,0.5c-0.1,0.1-0.1,0.1-0.2,0.2
	c-0.1,0.2-0.3,0.4-0.4,0.6c0,0-0.1,0.1-0.1,0.1c-0.2,0.2-0.3,0.4-0.5,0.6c-0.2,0.2-0.4,0.4-0.6,0.6c-0.2,0.2-0.4,0.3-0.5,0.5
	c-0.2,0.2-0.4,0.4-0.6,0.6c-0.1,0.1-0.3,0.3-0.4,0.3c0-0.1,0.1-0.1,0.1-0.2c0.2-0.2,0.3-0.3,0.5-0.5c0.1-0.1,0.2-0.2,0.2-0.3
	c0.1-0.1,0.1-0.1,0.2-0.1c0,0,0,0,0.1-0.1c0.1-0.2,0.2-0.3,0.3-0.4c0.1-0.1,0.2-0.2,0.2-0.3c0.1-0.2,0.3-0.3,0.5-0.5
	c0.1-0.1,0.2-0.2,0.2-0.3c0.2-0.2,0.4-0.5,0.6-0.7c0.2-0.2,0.3-0.4,0.4-0.6c0.1-0.1,0.2-0.3,0.3-0.4c0,0,0-0.1,0.1-0.1
	c0.1-0.1,0.2-0.2,0.3-0.3c0.1-0.1,0.2-0.2,0.3-0.3C13.9,17,13.8,17.3,13.8,17.5z M12.9,19.9c0,0.1-0.1,0.1-0.2,0.2
	c-0.1,0.1-0.1,0.1-0.2,0.2c-0.1,0.2-0.3,0.3-0.4,0.5c-0.1,0.2-0.3,0.3-0.5,0.5c0,0.1-0.1,0.1-0.1,0.1c-0.2,0.2-0.4,0.3-0.6,0.4
	c-0.1,0.1-0.2,0.1-0.2,0.1c-0.1,0.1-0.2,0.1-0.3,0.2c-0.1,0.1-0.1,0.1-0.2,0.1c-0.1,0.1-0.2,0.1-0.3,0.2c-0.1,0.1-0.2,0.1-0.3,0.2
	c0,0,0,0,0,0c0,0,0-0.1,0.1-0.1c0.1-0.1,0.2-0.2,0.3-0.3c0.1-0.1,0.2-0.2,0.4-0.4c0.1-0.1,0.1-0.1,0.2-0.2c0.1-0.1,0.2-0.2,0.3-0.3
	c0.2-0.2,0.3-0.3,0.5-0.5c0.2-0.1,0.4-0.3,0.5-0.5c0.2-0.2,0.4-0.4,0.5-0.5c0.1-0.1,0.2-0.2,0.3-0.3c0,0,0.1-0.1,0.2-0.1
	c0,0.1,0.1,0.1,0.1,0.2C13,19.8,13,19.8,12.9,19.9z M9.5,20.7C9.5,20.7,9.5,20.7,9.5,20.7c0.2-0.3,0.4-0.5,0.6-0.7
	c0.1-0.1,0.2-0.3,0.4-0.4c0.4-0.5,0.8-1,1.2-1.5c0.2-0.2,0.4-0.5,0.6-0.7c0.1-0.1,0.3-0.2,0.4-0.4c0.1-0.1,0.2-0.2,0.2-0.3
	c0.1-0.1,0.2-0.2,0.3-0.3c0,0.1-0.1,0.3-0.2,0.4c-0.1,0.2-0.3,0.3-0.4,0.5c-0.1,0.1-0.1,0.1-0.2,0.2c-0.2,0.2-0.4,0.5-0.6,0.7
	c0,0,0,0,0,0.1c-0.1,0.1-0.1,0.2-0.2,0.3c-0.1,0.1-0.2,0.2-0.3,0.3c-0.1,0.2-0.2,0.3-0.4,0.5c-0.1,0.2-0.3,0.3-0.5,0.4
	c-0.1,0.2-0.3,0.3-0.4,0.5c-0.1,0.1-0.2,0.3-0.3,0.3c0,0-0.1,0.1-0.1,0.1C9.6,20.7,9.6,20.7,9.5,20.7C9.5,20.8,9.5,20.8,9.5,20.7z
	 M8.7,23.1c-0.1,0-0.1,0-0.2,0c0-0.1,0.1-0.2,0.2-0.3c0.1,0,0.1-0.1,0.2-0.2c0,0,0.1-0.1,0.2-0.2c0.1,0.2,0.1,0.3,0.1,0.4
	C9,23,8.9,23.1,8.7,23.1z M7.7,22.2c-0.2,0.2-0.3,0.3-0.5,0.5c-0.1,0.1-0.2,0.2-0.3,0.3C6.7,23,6.6,23,6.5,23c0,0,0-0.1,0-0.1
	c0.1-0.2,0.2-0.3,0.3-0.5c0.2-0.3,0.4-0.5,0.6-0.8c0.2-0.3,0.4-0.5,0.6-0.8c0.1-0.1,0.2-0.2,0.3-0.3c0.3-0.3,0.5-0.6,0.8-0.9
	c0.1-0.1,0.2-0.3,0.3-0.4c0,0,0.1-0.1,0.1-0.1c0.3-0.2,0.5-0.5,0.7-0.8c0.1-0.2,0.3-0.4,0.5-0.6c0.2-0.2,0.3-0.4,0.5-0.6
	c0.1-0.1,0.1-0.2,0.2-0.4c0.1-0.1,0.1-0.2,0.2-0.3c0.2-0.2,0.3-0.5,0.5-0.7c0.1-0.1,0.2-0.2,0.3-0.3c0.2-0.3,0.4-0.5,0.6-0.7
	c0.1-0.1,0.2-0.2,0.4-0.4c0.1-0.1,0.2-0.1,0.3,0c0,0.1,0.1,0.1,0.1,0.2c-0.2,0.1-0.3,0.2-0.5,0.3c-0.1,0.1-0.2,0.2-0.3,0.3
	c-0.2,0.3-0.4,0.6-0.6,0.9c-0.2,0.2-0.3,0.4-0.5,0.6c-0.2,0.2-0.4,0.4-0.5,0.6c-0.2,0.3-0.4,0.5-0.6,0.8c-0.3,0.4-0.6,0.7-0.9,1.1
	c-0.4,0.5-0.8,0.9-1.2,1.4c-0.2,0.3-0.4,0.5-0.5,0.8C8,21.8,7.9,22,7.7,22.2z M7.4,23.3C7.4,23.3,7.3,23.3,7.4,23.3
	c-0.1-0.1-0.1-0.1,0-0.1C7.4,23.2,7.4,23.3,7.4,23.3z M6.2,22.1C6.2,22.1,6.2,22.1,6.2,22.1c0-0.1,0-0.1,0-0.2
	c0.1-0.1,0.2-0.2,0.3-0.4c0.1-0.1,0.2-0.2,0.2-0.3c0.1-0.3,0.4-0.5,0.5-0.7c0.2-0.2,0.3-0.5,0.5-0.7c0-0.1,0.1-0.1,0.1-0.2
	c0.2-0.2,0.4-0.4,0.6-0.5c0.2-0.2,0.4-0.5,0.5-0.7c0.1-0.1,0.2-0.3,0.3-0.4c0.1-0.2,0.3-0.4,0.4-0.6c0.1-0.2,0.2-0.3,0.4-0.5
	c0.1-0.1,0.2-0.2,0.2-0.3c0.1-0.2,0.2-0.3,0.4-0.4c0.1-0.1,0.3-0.3,0.4-0.4c0.2-0.2,0.3-0.4,0.5-0.6c0.1-0.1,0.2-0.2,0.3-0.3
	c0.1-0.1,0.2-0.2,0.2-0.3c0-0.2,0-0.4-0.2-0.5c0-0.1,0.1-0.1,0.1-0.2c0-0.1,0.1-0.1,0.2-0.1c0.3,0,0.4-0.2,0.5-0.4c0,0,0-0.1,0-0.1
	c0,0,0,0,0,0c0.2,0.1,0.3,0.3,0.3,0.5c-0.1,0.1-0.2,0.2-0.3,0.3c-0.1,0.1-0.2,0.2-0.3,0.3c-0.2,0.2-0.4,0.4-0.6,0.7
	c-0.1,0.1-0.2,0.2-0.3,0.3c-0.2,0.2-0.3,0.4-0.4,0.6c-0.3,0.6-0.7,1.1-1.1,1.6c-0.3,0.3-0.5,0.6-0.8,0.9C9.2,18.7,9,19,8.8,19.2
	c-0.2,0.2-0.4,0.5-0.6,0.7c-0.2,0.3-0.5,0.5-0.7,0.8c-0.1,0.1-0.2,0.2-0.3,0.3c-0.1,0.1-0.3,0.3-0.4,0.4c-0.1,0.1-0.2,0.2-0.3,0.4
	C6.4,22,6.3,22,6.2,22.1z M5.4,20.9c-0.2,0.1-0.3,0.3-0.3,0.5c0,0.1-0.1,0.2-0.1,0.3c-0.1,0.1-0.2,0.2-0.3,0.3
	c-0.2,0.1-0.4,0.3-0.5,0.5c0,0.1,0,0.1,0,0.2c0,0-0.1,0-0.1,0.1c0,0-0.1-0.1,0-0.1c0-0.1,0.1-0.2,0.2-0.3c0.1-0.2,0.3-0.3,0.5-0.5
	c0.1-0.1,0.2-0.2,0.2-0.3C5,21.2,5.1,21,5.3,20.7c0.1-0.2,0.3-0.4,0.4-0.5c0.1-0.2,0.2-0.4,0.4-0.5c0.1-0.1,0.2-0.2,0.3-0.3
	c0.2-0.1,0.3-0.2,0.5-0.3c0.2-0.2,0.4-0.4,0.6-0.7c0,0,0-0.1,0.1-0.1c0.2-0.2,0.3-0.4,0.4-0.6c0.1-0.2,0.3-0.5,0.5-0.7
	c0.2-0.2,0.3-0.4,0.5-0.6c0,0,0,0,0-0.1C9,16.1,9.1,16,9.3,15.8c0.1-0.1,0.2-0.3,0.3-0.4c0.2-0.3,0.4-0.5,0.6-0.8
	c0.2-0.2,0.4-0.4,0.5-0.7c0.2-0.3,0.5-0.5,0.8-0.7c0,0,0,0,0.1,0c0,0,0.1,0,0.1,0c0.1,0.1,0,0.1,0,0.2c-0.1,0.1-0.2,0.3-0.3,0.4
	c-0.3,0.3-0.5,0.5-0.8,0.8c-0.2,0.2-0.4,0.5-0.6,0.8c-0.3,0.5-0.6,0.9-0.9,1.3c-0.2,0.2-0.4,0.5-0.6,0.7C8.3,17.6,8.1,17.8,8,18
	c-0.2,0.2-0.3,0.5-0.5,0.7c-0.2,0.2-0.4,0.4-0.6,0.6c-0.2,0.3-0.5,0.5-0.7,0.8C5.9,20.4,5.7,20.6,5.4,20.9z M5.3,23.3
	c0-0.2,0-0.2,0.2-0.3c0,0.1,0,0.2,0,0.4C5.4,23.3,5.3,23.3,5.3,23.3z M3.4,22.1c-0.1,0.1-0.2,0.1-0.3,0c0,0,0,0,0,0
	c0-0.1,0.1-0.1,0.2-0.1c0.1,0,0.2-0.1,0.3-0.2c0.1-0.1,0.2-0.3,0.2-0.4c0-0.1,0.1-0.2,0.1-0.2c0.2-0.4,0.5-0.7,0.8-1
	c0.3-0.3,0.5-0.6,0.8-0.9c0.3-0.3,0.5-0.7,0.8-1c0.1-0.2,0.3-0.3,0.4-0.4c0,0.1-0.1,0.2-0.1,0.3c-0.2,0.3-0.4,0.5-0.6,0.8
	c-0.5,0.6-0.9,1.3-1.4,1.9c-0.2,0.3-0.4,0.5-0.7,0.8C3.7,21.7,3.6,22,3.4,22.1z M2.6,20.7c-0.1,0-0.1-0.1-0.1-0.1
	c0-0.1,0.1-0.1,0.1-0.2c0.2-0.2,0.3-0.4,0.4-0.6c0.2-0.3,0.3-0.6,0.5-1c0.1-0.2,0.3-0.3,0.4-0.5c0.2-0.3,0.4-0.5,0.6-0.8
	c0,0,0-0.1,0.1-0.1c0,0,0,0,0,0c0,0,0,0,0,0.1c-0.4,0.6-0.8,1.3-1.1,2c-0.2,0.3-0.4,0.6-0.6,0.9C2.9,20.5,2.8,20.6,2.6,20.7z
	 M1.9,19.2c0,0-0.1,0.1-0.1,0.1c-0.1-0.1-0.2-0.3-0.2-0.5c0-0.1,0-0.1,0.1-0.2c0.1-0.2,0.2-0.3,0.3-0.4c0.1-0.2,0.3-0.4,0.5-0.5
	c0,0,0.1-0.1,0.1-0.1c0.1-0.2,0.3-0.5,0.4-0.7c0.1-0.2,0.2-0.4,0.3-0.5c0.1-0.2,0.3-0.4,0.4-0.6C3.8,15.5,4,15.3,4.1,15
	c0.2-0.4,0.5-0.8,0.8-1.2c0.2-0.3,0.4-0.6,0.6-0.9c0.2-0.3,0.4-0.6,0.5-0.8c0.1-0.1,0.2-0.3,0.4-0.2c0.1-0.2,0.2-0.3,0.2-0.4
	c0.1-0.1,0.2-0.2,0.3-0.2c0,0,0.1,0,0.1-0.1c0.1-0.2,0.1-0.3,0-0.5c0,0,0-0.1,0-0.1c0.1-0.1,0.2-0.1,0.3-0.1c0.3,0,0.5,0,0.8,0
	c0,0.3-0.1,0.5,0.2,0.7c-0.1,0.1-0.1,0.2-0.2,0.3c0-0.1,0-0.2,0-0.3C8.1,11.1,8.1,11,8,11c-0.1-0.1-0.2-0.1-0.3,0.1
	c-0.1,0.2-0.2,0.4-0.4,0.6c-0.4,0.5-0.8,1-1.2,1.5c-0.5,0.5-1,1.1-1.3,1.8c-0.2,0.4-0.4,0.8-0.7,1.2c-0.2,0.2-0.3,0.4-0.5,0.6
	C3.5,17,3.3,17.4,3,17.8C2.7,18.3,2.4,18.8,1.9,19.2z M2.3,14.1c0.1,0,0.1-0.1,0.2-0.1c0,0.1-0.1,0.3-0.3,0.4
	C2.2,14.2,2.2,14.1,2.3,14.1z M2.8,14.8c-0.1,0.4-0.3,0.7-0.6,1c0-0.2,0-0.3,0.1-0.4c0.1-0.1,0.1-0.2,0.2-0.3
	C2.6,15,2.7,14.9,2.8,14.8z M3.6,13.2C3.6,13.2,3.6,13.2,3.6,13.2c0.1-0.3,0.3-0.5,0.5-0.6c0.1,0,0.1-0.1,0.1-0.2
	c0.1-0.1,0-0.2-0.2-0.3c0,0,0-0.1,0-0.1c0.2-0.1,0.3-0.2,0.4-0.4c0.2-0.1,0.3-0.2,0.5-0.3c0.3-0.1,0.6-0.2,0.9-0.4c0,0,0.1,0,0.1,0
	C6.1,11,6,11.1,5.9,11.3c-0.1,0.1-0.2,0.3-0.3,0.4c-0.1,0.1-0.2,0.3-0.3,0.4c0,0-0.1-0.1-0.1-0.1c0,0-0.1-0.1-0.1-0.1
	c-0.1-0.1-0.3-0.1-0.4,0.1c-0.1,0.2-0.1,0.3-0.3,0.4c-0.4,0.5-0.8,1-1.2,1.6c0,0,0,0.1-0.1,0.1C3.3,13.7,3.4,13.4,3.6,13.2z
	 M7.6,12.2c0.1-0.2,0.3-0.5,0.5-0.6c0,0,0,0,0,0C8,11.8,7.8,12,7.6,12.2C7.6,12.2,7.6,12.2,7.6,12.2z M9.3,11.2
	C9.3,11.2,9.3,11.1,9.3,11.2c0-0.2-0.1-0.3-0.2-0.4c-0.1-0.1-0.2-0.1-0.3,0c-0.1,0-0.1,0.1-0.2,0.1c0-0.1-0.1-0.2-0.1-0.3
	c0.1,0,0.2,0,0.3,0.1c0,0,0.1,0,0.1,0c0.2,0,0.4,0,0.6,0.2c0.1,0.1,0.2,0.2,0.3,0.3c0,0.1-0.1,0.2-0.2,0.3c-0.5,0.5-0.9,0.9-1.4,1.4
	c-0.1,0.2-0.2,0.3-0.4,0.5c-0.3,0.4-0.6,0.8-0.9,1.1c-0.2,0.3-0.4,0.5-0.6,0.8c-0.3,0.4-0.7,0.7-1,1.1c0.3-0.5,0.6-1,0.9-1.5
	c0.3-0.4,0.6-0.8,0.8-1.1c0.3-0.4,0.6-0.8,1-1.1c0.1-0.2,0.3-0.3,0.4-0.5c0.2-0.2,0.4-0.4,0.7-0.4C9.4,11.5,9.4,11.3,9.3,11.2z
	 M10,12c0,0,0.1,0,0.1,0c0.1,0,0.1,0.1,0.1,0.2c0,0.1-0.1,0.1-0.1,0.2c-0.2,0.3-0.5,0.7-0.7,1C9.2,13.7,9,14,8.7,14.4
	c-0.4,0.6-0.8,1.1-1.3,1.5c-0.3,0.3-0.6,0.6-0.8,0.9c-0.1,0.1-0.2,0.2-0.3,0.4c-0.3,0.3-0.6,0.7-0.9,1c-0.3,0.3-0.6,0.7-0.9,1.1
	c-0.2,0.2-0.3,0.4-0.5,0.6c0.1-0.1,0.1-0.2,0.2-0.3c0.1-0.2,0.2-0.4,0.3-0.6c0.3-0.5,0.6-0.9,0.9-1.4c0.3-0.4,0.6-0.9,1-1.3
	C7,15.7,7.5,15,8,14.4c0.3-0.3,0.5-0.7,0.8-1c0.1-0.2,0.3-0.3,0.4-0.5c0.1-0.1,0.2-0.2,0.3-0.3c0.1-0.1,0.3-0.2,0.4-0.4
	C9.9,12.1,9.9,12.1,10,12z M10.9,12.4c0-0.1,0.1-0.2,0.1-0.3c0.2,0.1,0.1,0.3,0,0.4C11,12.5,10.9,12.5,10.9,12.4
	C10.9,12.5,10.9,12.5,10.9,12.4z M11.9,12.3c0.1,0,0.1,0.1,0.2,0.1c0,0,0,0.1,0,0.1c-0.1,0-0.1,0-0.1-0.1
	C12,12.4,11.9,12.4,11.9,12.3C11.9,12.3,11.9,12.3,11.9,12.3z M15,16.2C15,16.2,15,16.2,15,16.2c0-0.1,0-0.2,0-0.3
	c-0.1-0.3-0.1-0.6-0.2-0.9c-0.1-0.5-0.3-0.9-0.5-1.4c-0.2-0.3-0.3-0.6-0.6-0.8c-0.1-0.1-0.2-0.2-0.2-0.3c0-0.1-0.1-0.2-0.2-0.2
	c-0.2-0.2-0.3-0.3-0.5-0.5c-0.1-0.1-0.2-0.2-0.3-0.3c-0.2-0.1-0.3-0.2-0.5-0.4c0,0-0.1,0-0.1-0.1c-0.1-0.1-0.3-0.2-0.4-0.3
	c-0.3-0.1-0.5-0.3-0.7-0.5c-0.2-0.2-0.5-0.3-0.7-0.4c-0.1,0-0.3-0.1-0.4-0.1C9.2,9.8,8.9,9.7,8.6,9.7c0,0-0.1,0-0.1,0
	c-0.1,0-0.2-0.1-0.4-0.1c-0.2,0-0.5,0-0.7,0c-0.1,0-0.2,0-0.3,0C6.8,9.9,6.4,9.9,6,10c-0.2,0.1-0.4,0.1-0.5,0.2
	c-0.2,0.1-0.4,0.2-0.6,0.3c-0.1,0-0.1,0.1-0.2,0.1c-0.2,0.1-0.4,0.2-0.6,0.3c-0.2,0.1-0.3,0.2-0.5,0.4c-0.1,0.2-0.3,0.3-0.5,0.5
	c-0.1,0.1-0.3,0.2-0.4,0.4c-0.1,0.1-0.2,0.2-0.4,0.3c-0.2,0.1-0.3,0.3-0.5,0.4c-0.1,0.1-0.2,0.2-0.3,0.4c-0.1,0.1-0.2,0.2-0.2,0.4
	c0,0.1-0.1,0.2-0.1,0.2c-0.2,0.2-0.3,0.5-0.4,0.8c0,0,0,0,0,0.1c-0.1,0.1-0.1,0.1-0.1,0.2c0,0.1,0,0.2-0.1,0.3
	c-0.1,0.3-0.1,0.5-0.2,0.8c0,0.1,0,0.3-0.1,0.4c-0.1,0.3-0.2,0.6-0.2,0.9c0,0.2,0,0.4,0,0.6c0,0.1,0,0.2,0,0.4c0,0.1,0,0.3,0,0.4
	c0.1,0.3,0.1,0.5,0.2,0.8c0,0,0,0,0,0.1c0,0.1,0,0.3,0.1,0.4c0.1,0.2,0.1,0.3,0.2,0.5c0,0,0,0.1,0,0.1c0,0.1,0,0.1,0,0.2
	c0,0,0,0.1,0,0.1c0,0.1,0.1,0.2,0.1,0.2c0.1,0.1,0.2,0.3,0.3,0.5c0.1,0.1,0.2,0.2,0.2,0.4c0.1,0.1,0.1,0.2,0.2,0.4
	c0.1,0.1,0.1,0.3,0.2,0.4c0,0,0.1,0.1,0.1,0.1c0,0,0.1,0,0.1,0.1c0.2,0.1,0.4,0.3,0.5,0.4c0,0,0.1,0.1,0.1,0.1
	c0.2,0.1,0.4,0.1,0.6,0.2c0.1,0,0.1,0,0.2,0C4,23.9,4.3,24,4.7,24.1c0.2,0,0.3,0.1,0.5,0.1c0.3,0,0.5,0,0.8,0.1
	c0.3,0.1,0.7,0.1,1,0.1c0.2,0,0.4,0,0.6-0.1c0.1,0,0.2,0,0.4,0c0.2-0.1,0.4-0.1,0.6-0.2c0.1,0,0.2-0.1,0.3,0c0,0,0,0,0.1,0
	c0.2-0.1,0.5-0.2,0.7-0.3c0,0,0.1,0,0.1-0.1c0.3-0.1,0.5-0.3,0.8-0.4c0.2-0.1,0.4-0.3,0.6-0.4c0.2-0.1,0.4-0.3,0.6-0.4c0,0,0,0,0,0
	c0.1-0.1,0.2-0.2,0.3-0.3c0.2-0.1,0.3-0.3,0.5-0.5c0-0.1,0.1-0.1,0.2-0.2c0.2-0.2,0.3-0.4,0.5-0.6c0.1-0.1,0.3-0.2,0.4-0.4
	c0.1-0.1,0.1-0.1,0.2-0.2c0.1-0.2,0.2-0.4,0.2-0.7c0-0.2,0.1-0.3,0.3-0.5c0.1-0.1,0.3-0.3,0.3-0.5c0-0.1,0-0.1,0.1-0.2
	c0.1-0.2,0.2-0.3,0.2-0.5c0-0.1,0-0.2,0-0.3c0-0.2,0.1-0.4,0.1-0.6C15,16.8,15,16.5,15,16.2z"/>
</svg>
