<?xml version="1.0" encoding="utf-8"?>
<!-- Generator: Adobe Illustrator 25.1.0, SVG Export Plug-In . SVG Version: 6.00 Build 0)  -->
<svg version="1.1" id="Layer_1"
     xmlns="http://www.w3.org/2000/svg" x="0px" y="0px" viewBox="0 0 538 182"
     style="enable-background:new 0 0 538 182;" xml:space="preserve">
<style type="text/css">
	.st0{fill:#FFFFFF;}
	.st1{fill-rule:evenodd;clip-rule:evenodd;fill:#FFFFFF;}
</style>
    <g>
	<g>
		<path class="st0" d="M343.6,116.8c1.1,1.1,1.7,2.8,1.7,4.5c0,1.7-0.6,3.4-1.7,4.5s-2.8,1.7-4.5,1.7h-34.2c-1.7,0-3.4-0.6-4.5-1.7
			c-1.1-1.1-1.7-2.8-1.7-4.5V60.7c0-1.7,0.6-3.4,1.7-4.5c1.1-1.1,2.8-1.7,5-1.7c1.7,0,3.4,0.6,4.5,1.7c1.1,1.1,1.7,2.8,1.7,4.5v54.4
			h27.5C340.8,115.1,341.9,115.7,343.6,116.8z"/>
        <path class="st0" d="M405.9,71.9c1.1,1.1,1.7,2.8,1.7,4.5v44.3c0,1.7-0.6,3.4-1.7,4.5c-1.1,1.1-2.8,1.7-4.5,1.7s-3.4-0.6-4.5-1.7
			c-1.1-0.6-1.7-2.2-1.7-3.9c-1.7,2.2-3.9,3.9-7.3,5c-2.8,1.7-6.2,2.2-9.5,2.2c-5,0-9-1.1-12.9-3.9c-3.9-2.2-6.7-6.2-9.5-10.1
			c-2.2-4.5-3.4-9.5-3.4-15.1s1.1-10.7,3.4-15.1c2.2-4.5,5-7.9,9-10.1c3.9-2.2,8.4-3.9,12.9-3.9c3.4,0,6.7,0.6,9.5,1.7
			c2.8,1.1,5.6,2.8,7.3,4.5l0,0c0-1.7,0.6-3.4,1.7-4.5c1.1-1.1,2.8-1.7,4.5-1.7C403.1,70.2,404.8,70.8,405.9,71.9z M391.3,111.8
			c2.8-3.4,4.5-7.3,4.5-12.3c0-5-1.7-9-4.5-12.3c-2.8-3.4-6.7-5-11.2-5s-7.9,1.7-11.2,5c-2.8,3.4-4.5,7.3-4.5,12.3
			c0,5,1.7,9,4.5,12.3c2.8,3.4,6.7,5,11.2,5C385.1,116.8,388.5,115.1,391.3,111.8z"/>
        <path class="st0" d="M465.9,76.4c2.8,4.5,3.9,10.1,3.9,17.4v26.9c0,1.7-0.6,3.4-1.7,4.5c-1.1,1.1-2.8,1.7-4.5,1.7
			c-1.7,0-3.4-0.6-4.5-1.7c-1.1-1.1-1.7-2.8-1.7-4.5V93.8c0-3.9-0.6-6.7-2.2-9c-1.7-2.2-4.5-3.4-8.4-3.4c-3.9,0-7.3,1.1-9.5,3.4
			c-2.2,2.2-3.4,5-3.4,9v26.9c0,1.7-0.6,3.4-1.7,4.5c-1.1,1.1-2.8,1.7-4.5,1.7c-1.7,0-3.4-0.6-4.5-1.7c-1.1-1.1-1.7-2.8-1.7-4.5
			V77.5c0-1.7,0.6-3.4,1.7-4.5c1.1-1.1,2.8-1.7,4.5-1.7c1.7,0,3.4,0.6,4.5,1.7c1.1,1.1,1.7,2.8,1.7,4.5v2.2c1.7-2.2,4.5-4.5,7.3-6.7
			c2.8-1.7,6.2-2.8,10.1-2.8C458.6,70.2,463.7,72.5,465.9,76.4z"/>
        <path class="st0" d="M533.8,51.7c1.1,1.1,1.7,2.8,1.7,4.5v64.5c0,1.7-0.6,3.4-1.7,4.5c-1.1,1.1-2.8,1.7-4.5,1.7s-3.4-0.6-4.5-1.7
			c-1.1-1.1-1.7-2.8-1.7-4.5c-1.7,2.2-3.9,3.9-7.3,5c-2.8,1.7-6.2,2.2-9.5,2.2c-5,0-9-1.1-12.9-3.9c-3.9-2.2-6.7-6.2-9.5-10.1
			c-2.2-4.5-3.4-9.5-3.4-15.1s1.1-10.7,3.4-15.1c2.2-4.5,5-7.9,9-10.1s8.4-3.9,12.9-3.9c3.4,0,6.7,0.6,9.5,1.7
			c2.8,1.1,5.6,2.8,7.3,4.5V56.2c0-1.7,0.6-3.4,1.7-4.5c1.1-1.1,2.8-1.7,4.5-1.7C531,50,532.7,50.6,533.8,51.7z M519.2,111.8
			c2.8-3.4,4.5-7.3,4.5-12.3c0-5-1.7-9-4.5-12.3c-2.8-3.4-6.7-5-11.2-5c-4.5,0-7.9,1.7-11.2,5c-2.8,3.4-4.5,7.3-4.5,12.3
			c0,5,1.7,9,4.5,12.3s6.7,5,11.2,5C512.5,116.8,516.4,115.1,519.2,111.8z"/>
	</g>
        <g>
		<path class="st0" d="M108,125.8c-1.1,1.1-2.8,1.7-4.5,1.7c-1.7,0-3.4-0.6-4.5-1.7c-1.1-1.1-1.7-2.8-1.7-4.5V56.2
			c0-1.7,0.6-3.4,1.7-4.5c1.1-1.1,2.8-1.7,4.5-1.7c1.7,0,3.4,0.6,4.5,1.7c1.1,1.1,1.7,2.8,1.7,4.5v64.5
			C109.7,123,109.1,124.1,108,125.8z"/>
            <path class="st0" d="M124.8,63.5c-1.1-0.6-1.7-2.2-1.7-3.9v-2.2c0-1.7,0.6-3.4,1.7-3.9c1.1-0.6,2.8-1.1,5-1.1c2.2,0,3.9,0.6,5,1.1
			c1.1,0.6,1.7,2.2,1.7,3.9v2.2c0,2.2-0.6,3.4-1.7,3.9c-1.1,0.6-2.8,1.1-5,1.1C127.1,64.6,125.4,64.1,124.8,63.5z M134.3,125.8
			c-1.1,1.1-2.8,1.7-4.5,1.7s-3.4-0.6-4.5-1.7c-1.1-1.1-1.7-2.8-1.7-4.5V78.1c0-1.7,0.6-3.4,1.7-4.5c1.1-1.1,2.8-1.7,4.5-1.7
			s3.4,0.6,4.5,1.7c1.1,1.1,1.7,2.8,1.7,4.5v43.2C136,123,135.5,124.1,134.3,125.8z"/>
            <path class="st0" d="M196.1,73c1.1,1.1,1.7,2.2,1.7,3.9c0,0.6,0,1.7-0.6,3.4l-19.6,43.2c-0.6,1.1-1.1,2.2-2.2,2.8
			s-2.2,1.1-3.4,1.1h-1.1c-1.1,0-2.2-0.6-3.4-1.1c-1.1-0.6-1.7-1.7-2.2-2.8l-19.6-43.2c-0.6-1.1-0.6-2.2-0.6-3.4
			c0-1.1,0.6-2.8,1.7-3.9c1.1-1.1,2.8-1.7,4.5-1.7c1.1,0,2.8,0.6,3.9,1.1c1.1,0.6,1.7,1.7,2.2,2.8l14.6,33.1l14.6-33.1
			c0.6-1.1,1.1-2.2,2.2-2.8c1.1-0.6,2.2-1.1,3.4-1.1C193.8,71.4,194.9,71.9,196.1,73z"/>
            <path class="st0" d="M256.1,102.2c-1.1,1.1-2.8,1.7-4.5,1.7h-34.8c0.6,3.9,2.8,7.3,5.6,9.5c2.8,2.2,6.2,3.4,10.1,3.4
			c2.8,0,5,0,6.7-0.6c1.7-0.6,2.8-1.1,3.9-1.7c1.1-0.6,1.7-1.1,1.7-1.1c1.1-0.6,2.2-1.1,3.4-1.1c1.7,0,2.8,0.6,3.9,1.7
			c1.1,1.1,1.7,2.2,1.7,3.9c0,1.7-1.1,3.4-2.8,5s-4.5,2.8-7.9,3.9c-3.4,1.1-6.7,1.7-10.1,1.7c-5.6,0-11.2-1.1-15.1-3.9
			c-4.5-2.2-7.9-5.6-10.1-10.1c-2.2-4.5-3.4-9-3.4-14.6c0-6.2,1.1-11.2,3.9-15.7c2.2-4.5,5.6-7.9,10.1-10.7
			c3.9-2.2,8.4-3.4,13.5-3.4c4.5,0,9,1.1,12.9,3.9c3.9,2.2,7.3,6.2,9.5,10.1c2.2,4.5,3.9,9,3.9,14
			C257.8,100,257.2,101.1,256.1,102.2z M217.4,93.2h27.5v-0.6c0-2.8-1.7-5.6-4.5-7.3c-2.8-2.2-5.6-3.4-9-3.4
			C223.6,82,218.5,85.4,217.4,93.2z"/>
	</g>
        <path class="st1" d="M79.4,93.8c-1.1,0-1.7,1.1-2.2,2.2c-1.1,1.1-1.7,1.7-2.2,2.8c-0.6,0.6-0.6,0.6-1.1,1.1
		c-0.6,1.1-1.7,2.2-2.2,3.4l-0.6,0.6c-1.1,1.1-1.7,2.2-2.8,3.4c-1.1,1.1-2.2,2.2-3.4,3.4s-2.2,1.7-3.4,2.8c-1.1,1.1-2.2,2.2-3.4,3.4
		c-0.6,0.6-1.7,1.7-2.8,1.7c0-0.6,0.6-0.6,0.6-1.1c1.1-1.1,1.7-2.2,2.8-2.8c0.6-0.6,1.1-1.1,1.1-1.7c0.6-0.6,0.6-0.6,1.1-0.6
		c0,0,0,0,0.6-0.6c0.6-1.1,1.1-1.7,1.7-2.2c0.6-0.6,1.1-1.1,1.1-1.7c0.6-1.1,1.7-2.2,2.8-2.8c0.6-0.6,1.1-1.1,1.7-1.7
		c1.1-1.7,2.2-2.8,3.4-4.5c1.1-1.1,1.7-2.2,2.2-3.4c0.6-0.6,1.1-1.7,1.7-2.2c0,0,0-0.6,0.6-0.6c0.6-0.6,1.1-1.1,1.7-1.7
		c0.6-0.6,1.1-1.1,1.7-1.7C79.9,91,79.4,92.7,79.4,93.8z M74.3,107.3c0,0.6-0.6,0.6-1.1,1.1c-0.6,0.6-0.6,0.6-1.1,1.1
		c-0.6,1.1-1.7,1.7-2.2,2.8c-0.6,1.1-2.2,1.7-2.8,2.8c0,0.6-0.6,0.6-0.6,0.6c-1.1,1.1-2.2,1.7-3.4,2.8c-0.6,0.6-1.1,0.6-1.1,0.6
		c-0.6,0.6-1.1,0.6-1.7,1.1s-0.6,0.6-1.1,0.6c-0.6,0.6-1.1,0.6-1.7,1.1c-0.6,0.6-1.1,0.6-1.7,1.1l0,0c0,0,0-0.6,0.6-0.6
		c0.6-0.6,1.1-1.1,1.7-1.7c0.6-0.6,1.1-1.1,2.2-2.2c0.6-0.6,0.6-0.6,1.1-1.1c0.6-0.6,1.1-1.1,1.7-1.7c1.1-1.1,1.7-1.7,2.8-2.8
		c1.1-0.6,2.2-1.7,2.8-2.8c1.1-1.1,2.2-2.2,2.8-2.8c0.6-0.6,1.1-1.1,1.7-1.7c0,0,0.6-0.6,1.1-0.6c0,0.6,0.6,0.6,0.6,1.1
		C74.9,106.7,74.9,107.3,74.3,107.3z M54.7,112.3C55.2,112.3,55.2,111.8,54.7,112.3c1.1-1.7,2.2-2.8,3.4-3.9
		c0.6-0.6,1.1-1.7,2.2-2.2c2.8-2.8,4.5-5.6,6.7-8.4c1.1-1.1,2.2-2.8,3.4-3.9c0.6-0.6,1.7-1.1,2.2-2.2c0.6-0.6,1.1-1.1,1.1-2.2
		c0.6-0.6,1.1-1.1,1.7-1.7c0,1.1-0.6,1.7-1.1,2.2c-0.6,1.1-1.7,1.7-2.2,2.8c-0.6,0.6-0.6,0.6-1.1,1.1c-1.1,1.1-2.2,2.8-3.4,3.9v0.6
		c-0.6,0.6-0.6,1.1-1.1,1.7c-0.6,0.6-1.1,1.1-1.7,1.7c-0.6,1.1-1.1,1.7-2.2,2.8c-0.6,1.1-1.7,1.7-2.8,2.2c-0.6,1.1-1.7,1.7-2.2,2.8
		c-0.6,0.6-1.1,1.7-1.7,1.7l-0.6,0.6C55.2,111.8,55.2,111.8,54.7,112.3C55.2,112.3,55.2,112.3,54.7,112.3z M50.8,125.8
		c-0.6,0-0.6,0-1.1,0c0.6-0.6,0.6-1.1,1.1-1.7c0.6,0,0.6-0.6,1.1-1.1c0,0,0.6-0.6,1.1-1.1c-0.6,1.1,0,2.2,0,2.8
		C52.4,125.2,51.3,125.2,50.8,125.8z M44.6,120.2c-1.1,1.1-1.7,1.7-2.8,2.8c-0.6,0.6-1.1,1.1-1.7,1.7c-0.6,0.6-1.1,0.6-2.2,0.6v-0.6
		c0.6-1.1,1.1-1.7,1.7-2.8c1.1-1.7,2.2-2.8,3.4-4.5c1.1-1.7,2.2-2.8,3.4-4.5c0.6-0.6,1.1-1.1,1.7-1.7c1.7-1.7,3.4-3.4,5-5
		c0.6-0.6,1.1-1.7,1.7-2.2l0.6-0.6c1.7-1.1,2.8-2.8,3.9-4.5c0.6-1.1,1.7-2.2,2.8-3.4c1.1-1.1,2.2-2.2,2.8-3.4
		c0.6-0.6,0.6-1.1,1.1-2.2c0.6-0.6,0.6-1.1,1.1-1.7c1.1-1.1,1.7-2.8,2.8-3.9c0.6-0.6,1.1-1.1,1.7-1.7c1.1-1.7,2.2-2.8,3.4-3.9
		c0.6-0.6,1.7-1.1,2.2-2.2c0.6-0.6,1.1-0.6,1.7,0c0,0.6,0.6,0.6,0.6,1.1c-1.1,0.6-1.7,1.1-2.8,1.7c-0.6,0.6-1.1,1.1-1.7,1.7
		c-1.1,1.7-2.2,3.4-3.4,5c-1.1,1.1-1.7,2.2-2.8,3.4c-1.1,1.1-2.2,2.2-2.8,3.4c-1.1,1.7-2.2,2.8-3.4,4.5c-1.7,2.2-3.4,3.9-5,6.2
		c-2.2,2.8-4.5,5-6.7,7.9c-1.1,2.2-2.2,3.9-3.4,5.6C46.8,117.9,45.7,119.1,44.6,120.2z M42.9,126.9L42.9,126.9
		c-0.6-0.6-0.6-0.6,0-0.6C42.9,126.3,42.9,126.3,42.9,126.9z M36.2,119.6L36.2,119.6c0-0.6,0-0.6,0-1.1c0.6-0.6,1.1-1.1,1.7-2.2
		c0.6-0.6,1.1-1.1,1.1-1.7c1.1-1.1,2.8-2.2,3.4-3.9c1.1-1.1,1.7-2.8,2.8-3.9c0-0.6,0.6-0.6,1.1-1.1c1.1-1.1,2.2-2.2,3.4-2.8
		c1.1-1.1,2.2-2.8,3.4-3.9c0-1.1,0.6-1.7,1.1-2.2c0.6-1.1,1.7-2.2,2.2-3.4c0.6-1.1,1.1-1.7,2.2-2.8c0.6-0.6,1.1-1.1,1.7-1.7
		c0.6-1.1,1.1-1.7,2.2-2.2c0.6-0.6,1.7-1.7,2.2-2.2c1.1-1.1,2.2-2.2,2.8-3.4c0.6-0.6,1.1-1.1,1.7-1.7c0.6-0.6,1.1-1.1,1.1-1.7
		c0-1.1,0-2.2-1.1-3.4c0.6-0.6,0.6-0.6,0.6-1.1c0-0.6,0.6-0.6,1.1-0.6c1.7,0,2.2-1.1,2.8-2.2v-0.6l0,0c1.1,0.6,1.7,1.7,1.7,2.8
		c-0.6,0.6-1.1,1.1-1.7,1.7c-0.6,0.6-1.1,1.1-1.7,1.7c-1.1,1.1-2.2,2.8-3.4,3.9c-0.6,0.6-1.1,1.1-1.7,1.7c-1.1,1.1-1.7,2.2-2.2,3.4
		c-1.7,3.4-3.9,6.2-6.7,9c-1.7,1.7-2.8,3.4-4.5,5c-1.1,1.7-2.2,2.8-3.9,4.5c-1.1,1.1-2.2,2.8-3.4,3.9c-1.1,1.7-2.8,2.8-3.9,4.5
		c0.6,0.6,0,1.7-0.6,2.2c-0.6,0.6-1.7,1.7-2.2,2.2c-0.6,0.6-1.1,1.1-1.7,2.2C37.3,119.1,36.7,119.6,36.2,119.6z M31.7,112.9
		c-0.6,0.6-1.1,1.7-1.7,2.8c0,0.6-0.6,1.1-0.6,1.7c-0.6,0.6-1.1,1.1-2.2,1.7c-1.1,0.6-2.2,1.7-2.8,2.8c0,0.6,0,0.6,0,1.1
		c0,0-0.6,0-0.6,0.6c0,0-0.6-0.6,0-0.6c0-0.6,0.6-1.1,1.1-1.7c1.1-1.1,1.7-1.7,2.8-2.8c0.6-0.6,1.1-1.1,1.1-1.7
		C30,115.7,31.1,114,31.7,112.9c0.6-1.1,1.7-2.2,2.2-2.8c0.6-1.1,1.1-2.2,2.2-2.8c0.6-0.6,1.1-1.1,1.7-1.7c1.1-0.6,1.7-1.1,2.8-2.2
		c1.1-1.1,2.2-2.2,3.4-3.9c0,0,0-0.6,0.6-0.6c1.1-1.1,1.7-2.2,2.2-3.4c0.6-1.1,1.7-2.8,2.8-3.9c1.1-1.1,1.7-2.2,2.8-3.4
		c0,0,0,0,0-0.6c0.6-1.1,1.1-1.7,1.7-2.8c0.6-0.6,1.1-1.7,1.7-2.2c1.1-1.7,2.2-2.8,3.4-4.5c1.1-1.1,2.2-2.2,2.8-3.9
		c1.1-1.7,2.8-2.8,4.5-3.9c0,0,0,0,0.6,0h0.6c0.6,0.6,0,0.6,0,1.1c-0.6,0.6-1.1,1.7-1.7,2.2c-1.7,1.7-3.4,3.4-4.5,4.5
		c-1.1,1.1-2.2,2.8-3.4,4.5c-1.7,2.8-3.4,5-5.6,7.9c-1.1,1.1-2.2,2.8-3.4,3.9c-1.1,0-1.7,1.1-2.8,2.2s-1.7,2.8-2.8,3.9
		c-1.1,1.1-2.2,2.2-3.4,3.4c-1.7,1.7-2.8,2.8-4.5,4.5C34.5,110.1,33.4,111.8,31.7,112.9z M31.1,126.3c0-1.1,0-1.1,1.1-1.7
		c0,0.6,0,1.1,0,2.2C31.7,126.9,31.1,126.3,31.1,126.3z M19.9,120.2c-0.6,0.6-1.1,0.6-1.7,0l0,0c0-0.6,0.6-0.6,1.1-0.6
		s1.1-0.6,1.7-1.1c0.6-0.6,1.1-1.7,1.1-2.2c0-0.6,0.6-1.1,0.6-1.1c1.1-2.2,2.8-3.9,4.5-5.6c1.7-1.7,2.8-3.4,4.5-5
		c1.7-1.7,2.8-3.9,4.5-5.6c0.6-1.1,1.7-1.7,2.8-2.2c0,0.6-0.6,1.1-0.6,1.7c-1.1,1.7-2.2,2.8-3.4,4.5c-2.8,3.4-5,7.3-7.9,10.7
		c-1.1,1.7-2.2,2.8-3.9,4.5C22.1,117.9,21.6,119.1,19.9,120.2z M16,111.8c-0.6,0-0.6-0.6-0.6-1.1c0-0.6,0.6-0.6,0.6-1.1
		c1.1-1.1,1.7-2.2,2.2-3.4c1.1-1.7,1.7-3.9,2.8-5.6c0.6-1.1,1.7-1.7,2.2-2.8c1.7-1.1,2.8-2.8,3.9-4.5c0,0,0-0.6,0.6-0.6l0,0
		c0,0,0,0,0,0.6c-2.2,3.4-4.5,7.3-6.7,11.2c-1.1,1.7-2.2,3.4-3.4,5C17.1,110.6,16.5,111.2,16,111.8z M12,103.3l-0.6,0.6
		c-0.6-1.1-1.1-1.7-1.1-2.8c0-0.6,0-0.6,0.6-1.1c0.6-1.1,1.1-1.7,2.2-2.8c0.6-1.1,1.7-2.2,2.8-2.8l0.6-0.6c0.6-1.7,1.7-2.8,2.2-4.5
		c0.6-1.1,1.1-2.2,1.7-3.4c0.6-1.1,1.7-2.2,2.2-3.4c0.6-1.1,1.7-2.8,2.2-3.9c1.1-2.2,3.4-4.5,5-6.7c1.1-1.7,2.2-3.4,3.4-5
		s2.2-3.4,2.8-4.5c0,0,0-0.6,1.1-0.6c0.6-1.1,1.1-1.7,1.1-2.2c0.6-0.6,1.1-1.1,1.7-1.1c0,0,0.6,0,0.6-0.6c0.6-0.6,1.1-1.1,0.6-2.2
		v-0.6c0-0.6,0.6-0.6,1.1-0.6c1.7,0,3.4,0,4.5,0c0,1.7-0.6,3.4,1.1,3.9c-0.6,0.6-0.6,1.1-1.1,1.7c0-0.6,0-1.1,0-1.7
		c0-0.6-0.6-1.1-0.6-1.7c-0.6-0.6-1.1-0.6-1.7,0c-0.6,1.1-1.1,2.2-2.2,3.4c-2.2,3.4-4.5,5.6-7.3,8.4c-2.8,2.8-5.6,6.2-7.3,10.1
		c-1.1,2.2-2.2,4.5-3.9,6.7c-1.1,1.1-1.7,2.2-2.8,3.4c-0.6,2.2-1.7,4.5-2.8,6.7C16.5,98.3,14.3,101.1,12,103.3z M14.3,74.2
		c0.6,0,0.6-0.6,1.1-0.6c0,0.6-0.6,1.7-1.7,2.2C13.2,75.3,13.7,74.7,14.3,74.2z M17.1,78.1c-0.6,2.2-1.7,3.9-3.4,5.6
		c0-1.1,0-1.7,0.6-2.2c0.6-0.6,0.6-1.1,1.1-1.7C16,79.8,16.5,78.7,17.1,78.1z M21.6,69.1L21.6,69.1c0.6-1.7,1.7-2.8,3.4-3.4
		c0.6,0,0.6-0.6,0.6-1.1c0.6-0.6,0-1.1-1.1-1.7v-0.6c1.1-0.6,1.7-1.1,2.2-2.2c1.1-0.6,1.7-1.1,2.8-1.7c1.7-0.6,3.4-1.1,5-2.2H35
		c0.6,0.6,0,1.1-0.6,2.2c-0.6,0.6-1.1,1.7-1.7,2.2c-0.6,0.6-1.1,1.7-1.7,2.2l-0.6-0.6L30,61.8c-1.1-0.6-1.7-0.6-2.2,0.6
		c-0.6,1.1-0.6,1.7-1.7,2.2c-2.2,2.8-4.5,5.6-6.7,9c0,0,0,0.6-0.6,0.6C19.9,72.5,20.5,70.8,21.6,69.1z M44,63.5
		c0.6-1.1,1.7-2.8,2.8-3.4l0,0C46.3,61.3,45.1,62.4,44,63.5L44,63.5z M54.1,57.9C54.1,57.9,54.1,57.3,54.1,57.9
		c0-1.1-0.6-1.7-1.1-2.2c-0.6-0.6-1.1-0.6-1.7,0c-0.6,0-0.6,0.6-1.1,0.6c0-0.6-0.6-1.1-0.6-1.7c0.6,0,1.1,0,1.7,0.6h0.6
		c1.1,0,2.2,0,3.4,1.1c1.1,0.6,1.7,0.6,2.2,1.1c0,0.6-0.6,1.1-1.1,1.7c-2.8,2.8-5,5-7.9,7.9c-0.6,0.6-1.1,1.7-2.2,2.8
		c-1.7,2.2-3.4,4.5-5,6.7c-1.1,1.7-2.2,2.8-3.4,4.5c-1.7,2.2-3.9,3.9-5.6,6.2c1.7-2.8,3.4-5.6,5-8.4c1.7-2.2,3.4-4.5,5-6.2
		c1.7-2.2,3.9-4.5,5.6-6.2c0.6-1.1,1.7-1.7,2.2-2.8c1.1-1.1,2.2-2.2,3.9-2.2C54.1,59.6,54.7,58.5,54.1,57.9z M58,62.4h0.6
		c0.6,0,0.6,0.6,0.6,1.1c0,0.6-0.6,0.6-0.6,1.1c-1.1,1.7-2.8,3.9-3.9,5.6c-1.7,2.2-2.8,3.9-3.9,5.6c-2.2,3.4-4.5,6.2-7.3,8.4
		c-1.7,1.7-3.4,3.4-4.5,5c-0.6,0.6-1.1,1.1-1.7,2.2c-1.7,1.7-3.4,3.9-5,5.6c-1.7,2.2-3.4,3.9-5,6.2c-1.1,1.1-1.7,2.2-2.8,3.4
		c0-0.6,0.6-1.1,0.6-1.7c0.6-1.1,1.1-2.2,2.2-3.4c1.7-2.8,3.4-5,5-7.9c1.7-2.2,3.4-5,5.6-7.3c3.4-3.4,5.6-7.3,9-10.7
		c1.7-1.7,2.8-3.9,4.5-5.6c0.6-1.1,1.7-2.2,2.8-2.8c0.6-0.6,1.1-1.1,1.7-1.7c0.6-0.6,1.7-1.1,2.2-2.2C57.5,62.9,57.5,62.9,58,62.4z
		 M63.1,65.2c0-0.6,0.6-1.1,0.6-1.7c1.1,0.6,0.6,1.7,0,2.2C63.7,65.2,63.1,65.2,63.1,65.2L63.1,65.2z M68.7,64.1
		c0.6,0,0.6,0.6,1.1,0.6c0,0.6,0,0.6,0,0.6c-0.6,0-0.6,0-0.6-0.6C68.7,65.2,68.7,64.6,68.7,64.1L68.7,64.1z M86.1,86.5L86.1,86.5
		c0-0.6,0-1.1,0-1.7c-0.6-1.7-0.6-3.4-1.1-5.6c-0.6-2.8-1.7-5.6-2.8-7.9c-1.1-1.7-1.7-3.4-3.4-4.5c-0.6-0.6-1.1-1.1-1.1-1.7
		c0-0.6-0.6-1.1-1.1-1.1c-1.1-1.1-1.7-1.7-2.8-2.8c-0.6-0.6-1.1-1.1-1.7-1.7c-1.1-0.6-1.7-1.1-2.8-2.2c0,0-0.6,0-0.6-0.6
		c-0.6-0.6-1.7-1.1-2.2-1.7c-1.7-0.6-2.8-1.7-4.5-2.8c-1.7-0.6-3.4-0.6-4.5-1.1c-0.6,0-1.7-0.6-2.2-0.6c-1.7-0.6-3.4-1.1-5-1.1h-0.6
		c-0.6,0-1.7-0.6-2.2-0.6c-1.1,0-2.8,0-3.9,0c-0.6,0-1.1,0-1.7,0c-2.2,1.7-4.5,1.7-6.2,2.2c-1.1,0.6-2.2,1.1-3.4,1.1
		C31.1,52.8,30,54,28.9,54c-0.6,0-0.6,0.6-1.1,0.6c-1.1,1.1-2.2,1.7-3.4,2.2c-1.1,0.6-1.7,1.1-2.8,2.2c-1.1,1.1-1.7,1.7-2.8,2.8
		c-1.1,0.6-1.7,1.1-2.2,2.2c-0.6,0.6-1.1,1.1-2.2,1.7c-1.1,0.6-1.7,1.7-2.8,2.2c-0.6,0.6-1.1,1.1-1.7,2.2c-0.6,0.6-1.1,1.1-1.1,2.2
		c0,0.6-0.6,1.1-0.6,1.1c-1.1,1.1-1.7,2.8-2.2,4.5c0,0,0,0,0,0.6c-0.6,0.6-0.6,0.6-0.6,1.1c0,0.6,0,1.1-0.6,2.2
		c-0.6,1.7-0.6,2.8-1.1,4.5c0,0.6,0,1.7-0.6,2.2c0,1.1-0.6,2.8-0.6,4.5c0,1.1,0,2.2,0,3.4c0,0.6,0,1.1,0,2.2c0,0.6,0,1.7,0,2.2
		c0.6,1.7,0.6,2.8,1.1,4.5c0,0,0,0,0,0.6c0,0.6,0,1.7,0.6,2.2c0.6,1.1,0.6,1.7,1.1,2.8v0.6c0,0.6,0,0.6,0,1.1c0,0,0.6,0.6,0,0.6
		c0,0.6,0.6,1.1,0.6,1.1c2.2,0.6,2.2,1.7,2.8,2.2c0.6,0.6,1.1,1.7,1.1,2.2c0.6,0.6,0.6,1.1,1.1,2.2c0.6,0.6,0.6,1.7,1.1,2.2l0.6,0.6
		c0,0,0.6,0,0.6,0.6c1.1,0.6,2.2,1.7,3.4,2.8l0.6,0.6c1.1,0.6,2.2,0.6,3.4,1.1c0.6,0,0.6,0,1.1,0c1.7,1.1,3.9,1.7,6.2,2.2
		c1.1,0,1.7,0.6,2.8,0.6c1.7,0,2.8,0,4.5,0.6s3.9,0.6,5.6,0.6c1.1,0,2.2,0,3.9-0.6c0.6,0,1.7,0,2.2-0.6c1.1-0.6,2.2-0.6,3.4-1.1
		c0.6,0,1.1-0.6,1.7,0c0,0,0,0,0.6,0c1.1-0.6,2.8-1.1,3.9-1.7c0,0,0.6,0,0.6-0.6c1.7-0.6,3.4-1.7,4.5-2.2c1.1-0.6,2.2-1.7,3.4-2.2
		c1.1-0.6,2.2-1.7,3.4-2.2l0,0c0.6-0.6,1.1-1.1,1.7-1.7c1.1-0.6,1.7-1.7,2.8-2.8c0-0.6,0.6-0.6,1.1-1.1c1.1-1.1,2.2-2.2,2.8-3.4
		c0.6-0.6,1.7-1.1,2.2-2.2c0.6-0.6,0.6-0.6,1.1-1.1c0.6-1.1,1.1-2.2,1.1-3.9c0-1.1,0.6-1.7,1.7-2.8c0.6-1.1,1.7-1.7,1.7-2.8
		c0-0.6,0-0.6,0.6-1.1c0.6-1.1,1.1-1.7,1.1-2.8c0-0.6,0-1.1,0-1.7c0-1.1,0.6-2.2,0.6-3.4C86.1,89.3,86.1,88.2,86.1,86.5z"/>
</g>
</svg>
