<?xml version="1.0" encoding="utf-8"?>
<!-- Generator: Adobe Illustrator 25.1.0, SVG Export Plug-In . SVG Version: 6.00 Build 0)  -->
<svg version="1.1" id="Layer_1" xmlns="http://www.w3.org/2000/svg"
     x="0px" y="0px"
     width="150" height="100"
     viewBox="0 0 57.6 19.5" style="enable-background:new 0 0 57.6 19.5; height: 51px;"
     xml:space="preserve">
<style type="text/css">
	.st0{fill:#21125E;}
	.st1{fill-rule:evenodd;clip-rule:evenodd;fill:#51E9D2;}
</style>
    <g>
	<g>
		<path class="st0" d="M36.8,12.5c0.1,0.1,0.2,0.3,0.2,0.5c0,0.2-0.1,0.3-0.2,0.5c-0.1,0.1-0.3,0.2-0.5,0.2h-3.7
			c-0.2,0-0.4-0.1-0.5-0.2C32,13.3,32,13.2,32,13V6.5C32,6.3,32,6.1,32.2,6c0.1-0.1,0.3-0.2,0.5-0.2c0.2,0,0.3,0.1,0.5,0.2
			c0.1,0.1,0.2,0.3,0.2,0.5v5.9h2.9C36.5,12.3,36.7,12.4,36.8,12.5z"/>
        <path class="st0" d="M43.5,7.7c0.1,0.1,0.2,0.3,0.2,0.5V13c0,0.2-0.1,0.4-0.2,0.5c-0.1,0.1-0.3,0.2-0.5,0.2
			c-0.2,0-0.4-0.1-0.5-0.2c-0.1-0.1-0.2-0.3-0.2-0.5c-0.2,0.2-0.4,0.4-0.8,0.6c-0.3,0.2-0.7,0.2-1,0.2c-0.5,0-1-0.1-1.4-0.4
			c-0.4-0.3-0.8-0.6-1-1.1c-0.2-0.5-0.4-1-0.4-1.6c0-0.6,0.1-1.1,0.4-1.6c0.2-0.5,0.6-0.8,1-1.1c0.4-0.3,0.9-0.4,1.4-0.4
			c0.4,0,0.7,0.1,1,0.2c0.3,0.1,0.6,0.3,0.8,0.5v0c0-0.2,0.1-0.4,0.2-0.5c0.1-0.1,0.3-0.2,0.5-0.2C43.2,7.5,43.4,7.6,43.5,7.7z
			 M42,12c0.3-0.4,0.5-0.8,0.5-1.3c0-0.5-0.2-1-0.5-1.4c-0.3-0.4-0.7-0.5-1.2-0.5c-0.5,0-0.9,0.2-1.2,0.5c-0.3,0.4-0.5,0.8-0.5,1.4
			c0,0.5,0.2,1,0.5,1.3c0.3,0.4,0.7,0.5,1.2,0.5C41.3,12.5,41.7,12.4,42,12z"/>
        <path class="st0" d="M50,8.2c0.3,0.5,0.4,1.1,0.4,1.9V13c0,0.2-0.1,0.4-0.2,0.5c-0.1,0.1-0.3,0.2-0.5,0.2c-0.2,0-0.4-0.1-0.5-0.2
			c-0.1-0.1-0.2-0.3-0.2-0.5v-2.9c0-0.4-0.1-0.7-0.3-1c-0.2-0.2-0.5-0.4-0.9-0.4c-0.4,0-0.8,0.1-1,0.4c-0.2,0.3-0.4,0.6-0.4,1V13
			c0,0.2-0.1,0.4-0.2,0.5c-0.1,0.1-0.3,0.2-0.5,0.2c-0.2,0-0.4-0.1-0.5-0.2c-0.1-0.1-0.2-0.3-0.2-0.5V8.3c0-0.2,0.1-0.4,0.2-0.5
			c0.1-0.1,0.3-0.2,0.5-0.2c0.2,0,0.4,0.1,0.5,0.2c0.1,0.1,0.2,0.3,0.2,0.5v0.2C46.7,8.2,47,8,47.3,7.8c0.3-0.2,0.7-0.3,1.1-0.3
			C49.2,7.5,49.7,7.8,50,8.2z"/>
        <path class="st0" d="M57.2,5.5c0.1,0.1,0.2,0.3,0.2,0.5v7c0,0.2-0.1,0.4-0.2,0.5c-0.1,0.1-0.3,0.2-0.5,0.2c-0.2,0-0.4-0.1-0.5-0.2
			c-0.1-0.1-0.2-0.3-0.2-0.5c-0.2,0.2-0.4,0.4-0.8,0.6c-0.3,0.2-0.7,0.2-1,0.2c-0.5,0-1-0.1-1.4-0.4c-0.4-0.3-0.8-0.6-1-1.1
			c-0.2-0.5-0.4-1-0.4-1.6c0-0.6,0.1-1.1,0.4-1.6c0.2-0.5,0.6-0.8,1-1.1c0.4-0.3,0.9-0.4,1.4-0.4c0.4,0,0.7,0.1,1,0.2
			c0.3,0.1,0.6,0.3,0.8,0.5V6c0-0.2,0.1-0.4,0.2-0.5c0.1-0.1,0.3-0.2,0.5-0.2C57,5.3,57.1,5.4,57.2,5.5z M55.7,12
			c0.3-0.4,0.5-0.8,0.5-1.3c0-0.5-0.2-1-0.5-1.4c-0.3-0.4-0.7-0.5-1.2-0.5c-0.5,0-0.9,0.2-1.2,0.5c-0.3,0.4-0.5,0.8-0.5,1.4
			c0,0.5,0.2,1,0.5,1.3c0.3,0.4,0.7,0.5,1.2,0.5C55,12.5,55.4,12.4,55.7,12z"/>
	</g>
        <g>
		<path class="st0" d="M11.5,13.5c-0.1,0.1-0.3,0.2-0.5,0.2c-0.2,0-0.3-0.1-0.5-0.2c-0.1-0.1-0.2-0.3-0.2-0.5V6
			c0-0.2,0.1-0.4,0.2-0.5c0.1-0.1,0.3-0.2,0.5-0.2c0.2,0,0.3,0.1,0.5,0.2c0.1,0.1,0.2,0.3,0.2,0.5v7C11.7,13.2,11.6,13.3,11.5,13.5z
			"/>
            <path class="st0" d="M13.3,6.8c-0.1-0.1-0.2-0.2-0.2-0.4V6.1c0-0.2,0.1-0.4,0.2-0.4c0.1-0.1,0.3-0.1,0.5-0.1c0.3,0,0.4,0,0.6,0.1
			c0.1,0.1,0.2,0.2,0.2,0.4v0.2c0,0.2-0.1,0.4-0.2,0.4c-0.1,0.1-0.3,0.1-0.6,0.1C13.6,6.9,13.4,6.9,13.3,6.8z M14.3,13.5
			c-0.1,0.1-0.3,0.2-0.5,0.2c-0.2,0-0.4-0.1-0.5-0.2c-0.1-0.1-0.2-0.3-0.2-0.5V8.3c0-0.2,0.1-0.4,0.2-0.5c0.1-0.1,0.3-0.2,0.5-0.2
			c0.2,0,0.4,0.1,0.5,0.2c0.1,0.1,0.2,0.3,0.2,0.5V13C14.5,13.2,14.5,13.3,14.3,13.5z"/>
            <path class="st0" d="M21,7.8c0.1,0.1,0.2,0.3,0.2,0.4c0,0.1,0,0.2-0.1,0.3L19,13.2c-0.1,0.1-0.1,0.2-0.2,0.3
			c-0.1,0.1-0.2,0.1-0.3,0.1l-0.1,0c-0.1,0-0.2,0-0.4-0.1c-0.1-0.1-0.2-0.2-0.3-0.3l-2.1-4.6c-0.1-0.1-0.1-0.2-0.1-0.4
			c0-0.1,0.1-0.3,0.2-0.4c0.1-0.1,0.3-0.2,0.5-0.2c0.1,0,0.3,0,0.4,0.1c0.1,0.1,0.2,0.2,0.3,0.3l1.6,3.6l1.5-3.5
			c0.1-0.1,0.1-0.3,0.2-0.3c0.1-0.1,0.2-0.1,0.3-0.1C20.7,7.7,20.9,7.7,21,7.8z"/>
            <path class="st0" d="M27.4,10.9c-0.1,0.1-0.3,0.2-0.5,0.2h-3.7c0.1,0.4,0.3,0.8,0.6,1c0.3,0.3,0.7,0.4,1.1,0.4
			c0.3,0,0.5,0,0.7-0.1c0.2-0.1,0.3-0.1,0.4-0.2c0.1-0.1,0.2-0.1,0.2-0.1c0.1-0.1,0.3-0.1,0.4-0.1c0.2,0,0.3,0.1,0.4,0.2
			c0.1,0.1,0.2,0.2,0.2,0.4c0,0.2-0.1,0.4-0.3,0.6c-0.2,0.2-0.5,0.3-0.8,0.4c-0.4,0.1-0.7,0.2-1.1,0.2c-0.6,0-1.2-0.1-1.6-0.4
			c-0.5-0.3-0.8-0.6-1.1-1.1c-0.3-0.5-0.4-1-0.4-1.6c0-0.6,0.1-1.2,0.4-1.7c0.3-0.5,0.6-0.9,1.1-1.1c0.4-0.3,0.9-0.4,1.4-0.4
			c0.5,0,1,0.1,1.4,0.4C26.6,8.2,27,8.6,27.2,9c0.3,0.5,0.4,1,0.4,1.5C27.6,10.7,27.5,10.8,27.4,10.9z M23.2,10h2.9V9.9
			c0-0.3-0.2-0.6-0.5-0.8c-0.3-0.2-0.6-0.3-0.9-0.3C23.9,8.8,23.4,9.2,23.2,10z"/>
	</g>
        <path class="st1" d="M8.4,10.1c-0.1,0-0.2,0.1-0.3,0.2C8,10.4,8,10.5,7.9,10.6c0,0-0.1,0.1-0.1,0.1c-0.1,0.1-0.2,0.2-0.2,0.3
		c0,0,0,0.1-0.1,0.1c-0.1,0.1-0.2,0.2-0.3,0.3c-0.1,0.1-0.2,0.2-0.4,0.4C6.7,12,6.6,12,6.5,12.1c-0.1,0.1-0.3,0.2-0.4,0.4
		c-0.1,0.1-0.2,0.2-0.3,0.2c0,0,0-0.1,0.1-0.1c0.1-0.1,0.2-0.2,0.3-0.3c0.1-0.1,0.1-0.1,0.1-0.2c0,0,0.1-0.1,0.1-0.1c0,0,0,0,0,0
		c0.1-0.1,0.1-0.2,0.2-0.2c0.1-0.1,0.1-0.1,0.2-0.2c0.1-0.1,0.2-0.2,0.3-0.3c0.1,0,0.1-0.1,0.2-0.2c0.1-0.2,0.3-0.3,0.4-0.5
		c0.1-0.1,0.2-0.3,0.3-0.4C7.9,10.2,8,10.1,8.1,10c0,0,0,0,0-0.1c0.1-0.1,0.1-0.1,0.2-0.2c0.1-0.1,0.1-0.1,0.2-0.2
		C8.5,9.8,8.4,9.9,8.4,10.1z M7.9,11.5c0,0-0.1,0.1-0.1,0.1c0,0-0.1,0.1-0.1,0.1c-0.1,0.1-0.2,0.2-0.3,0.3c-0.1,0.1-0.2,0.2-0.3,0.3
		c0,0-0.1,0.1-0.1,0.1c-0.1,0.1-0.2,0.2-0.3,0.3c0,0-0.1,0-0.1,0.1c-0.1,0-0.1,0.1-0.2,0.1c0,0-0.1,0.1-0.1,0.1
		c-0.1,0-0.1,0.1-0.2,0.1c0,0-0.1,0.1-0.2,0.1c0,0,0,0,0,0c0,0,0-0.1,0.1-0.1C6.1,13,6.1,13,6.2,12.9c0.1-0.1,0.1-0.1,0.2-0.2
		c0,0,0.1-0.1,0.1-0.1c0.1-0.1,0.1-0.1,0.2-0.2c0.1-0.1,0.2-0.2,0.3-0.3c0.1-0.1,0.2-0.2,0.3-0.3c0.1-0.1,0.2-0.2,0.3-0.3
		c0.1-0.1,0.1-0.1,0.2-0.2c0,0,0.1,0,0.1-0.1c0,0.1,0,0.1,0,0.1C7.9,11.4,7.9,11.5,7.9,11.5z M5.8,12C5.8,12,5.8,12,5.8,12
		c0.1-0.2,0.2-0.3,0.3-0.4c0.1-0.1,0.1-0.2,0.2-0.3c0.3-0.3,0.5-0.6,0.7-0.9c0.1-0.1,0.2-0.3,0.4-0.4c0.1-0.1,0.2-0.1,0.2-0.3
		c0.1-0.1,0.1-0.1,0.1-0.2c0-0.1,0.1-0.1,0.2-0.2C8,9.5,8,9.5,7.9,9.6C7.8,9.7,7.8,9.8,7.7,9.9c0,0-0.1,0.1-0.1,0.1
		c-0.1,0.1-0.3,0.3-0.4,0.4c0,0,0,0,0,0c0,0.1-0.1,0.1-0.1,0.2c-0.1,0-0.1,0.1-0.2,0.2c-0.1,0.1-0.1,0.2-0.2,0.3
		c-0.1,0.1-0.2,0.2-0.3,0.3c-0.1,0.1-0.2,0.2-0.2,0.3c-0.1,0.1-0.1,0.2-0.2,0.2C5.9,11.9,5.9,11.9,5.8,12C5.9,12,5.8,12,5.8,12
		C5.8,12,5.8,12,5.8,12z M5.3,13.5c0,0-0.1,0-0.1,0c0-0.1,0.1-0.1,0.1-0.2c0,0,0.1-0.1,0.1-0.1c0,0,0.1-0.1,0.1-0.1
		c0,0.1,0.1,0.2,0.1,0.3C5.5,13.4,5.4,13.4,5.3,13.5z M4.7,12.9c-0.1,0.1-0.2,0.2-0.3,0.3c-0.1,0.1-0.1,0.1-0.2,0.2
		c-0.1,0.1-0.1,0.1-0.2,0c0,0,0,0,0-0.1c0.1-0.1,0.1-0.2,0.2-0.3c0.1-0.2,0.3-0.3,0.4-0.5c0.1-0.2,0.3-0.3,0.4-0.5
		C5,12,5,12,5.1,11.9c0.2-0.2,0.3-0.4,0.5-0.5c0.1-0.1,0.1-0.2,0.2-0.3c0,0,0,0,0.1-0.1c0.2-0.1,0.3-0.3,0.4-0.5
		c0.1-0.1,0.2-0.2,0.3-0.4c0.1-0.1,0.2-0.2,0.3-0.4C6.9,9.8,6.9,9.7,7,9.6C7,9.6,7,9.5,7.1,9.5c0.1-0.1,0.2-0.3,0.3-0.4
		C7.5,9,7.5,8.9,7.6,8.9c0.1-0.2,0.2-0.3,0.4-0.4C8,8.4,8.1,8.3,8.2,8.2c0.1-0.1,0.1-0.1,0.2,0c0,0,0,0.1,0,0.1
		C8.3,8.4,8.2,8.5,8.1,8.6C8,8.6,8,8.7,7.9,8.7C7.8,8.9,7.7,9.1,7.6,9.3C7.5,9.4,7.4,9.5,7.3,9.7C7.2,9.8,7,9.9,6.9,10
		c-0.1,0.2-0.2,0.3-0.3,0.5c-0.2,0.2-0.4,0.4-0.5,0.7c-0.2,0.3-0.5,0.6-0.7,0.8c-0.1,0.2-0.2,0.3-0.3,0.5
		C4.9,12.7,4.8,12.8,4.7,12.9z M4.5,13.6C4.5,13.6,4.5,13.6,4.5,13.6C4.5,13.6,4.5,13.5,4.5,13.6C4.5,13.5,4.5,13.6,4.5,13.6z
		 M3.8,12.8C3.8,12.8,3.8,12.8,3.8,12.8c0,0,0-0.1,0-0.1c0.1-0.1,0.1-0.1,0.2-0.2c0-0.1,0.1-0.1,0.1-0.2c0.1-0.2,0.2-0.3,0.3-0.4
		c0.1-0.1,0.2-0.3,0.3-0.4c0,0,0.1-0.1,0.1-0.1C5,11.2,5.1,11.1,5.2,11c0.1-0.1,0.2-0.3,0.3-0.4c0.1-0.1,0.1-0.2,0.2-0.3
		c0.1-0.1,0.2-0.2,0.2-0.4C6,9.9,6.1,9.8,6.2,9.7c0.1-0.1,0.1-0.1,0.2-0.2c0.1-0.1,0.1-0.2,0.2-0.3C6.6,9.1,6.7,9,6.8,9
		C6.9,8.8,7,8.7,7.1,8.6c0.1-0.1,0.1-0.1,0.2-0.2c0.1,0,0.1-0.1,0.1-0.2c0-0.1,0-0.2-0.1-0.3c0,0,0.1-0.1,0.1-0.1
		c0,0,0.1-0.1,0.1-0.1c0.2,0,0.2-0.1,0.3-0.2c0,0,0,0,0-0.1c0,0,0,0,0,0C7.9,7.5,8,7.6,8,7.7c0,0.1-0.1,0.1-0.2,0.2
		C7.8,8,7.8,8,7.7,8.1C7.6,8.2,7.5,8.4,7.3,8.5C7.3,8.6,7.2,8.6,7.2,8.7C7,8.8,7,8.9,6.9,9.1c-0.2,0.4-0.4,0.7-0.7,1
		c-0.2,0.2-0.3,0.4-0.5,0.6c-0.1,0.2-0.3,0.3-0.4,0.5c-0.1,0.1-0.2,0.3-0.3,0.4c-0.1,0.2-0.3,0.3-0.4,0.5c-0.1,0.1-0.1,0.1-0.2,0.2
		c-0.1,0.1-0.2,0.2-0.2,0.3C4.1,12.5,4,12.6,4,12.7C3.9,12.8,3.9,12.8,3.8,12.8z M3.3,12.1c-0.1,0.1-0.2,0.2-0.2,0.3
		c0,0.1-0.1,0.1-0.1,0.2c0,0.1-0.1,0.1-0.2,0.2c-0.1,0.1-0.2,0.2-0.3,0.3c0,0,0,0.1,0,0.1c0,0-0.1,0-0.1,0c0,0,0-0.1,0-0.1
		c0-0.1,0.1-0.1,0.1-0.2c0.1-0.1,0.2-0.2,0.3-0.3c0-0.1,0.1-0.1,0.1-0.2C3,12.3,3.1,12.2,3.3,12.1c0-0.2,0.1-0.3,0.2-0.4
		c0.1-0.1,0.1-0.2,0.2-0.3c0.1-0.1,0.1-0.1,0.2-0.2c0.1,0,0.2-0.1,0.3-0.2c0.1-0.1,0.3-0.3,0.4-0.4c0,0,0,0,0-0.1
		c0.1-0.1,0.2-0.3,0.2-0.4C4.9,10,5,9.8,5.1,9.7c0.1-0.1,0.2-0.2,0.3-0.4c0,0,0,0,0,0c0-0.1,0.1-0.2,0.2-0.3
		c0.1-0.1,0.1-0.2,0.2-0.2C6,8.6,6.1,8.5,6.2,8.3c0.1-0.1,0.2-0.3,0.3-0.4C6.7,7.7,6.8,7.6,7,7.5c0,0,0,0,0,0c0,0,0,0,0.1,0
		c0,0,0,0.1,0,0.1C7,7.6,7,7.7,6.9,7.8C6.8,7.9,6.6,8.1,6.4,8.3C6.3,8.4,6.2,8.6,6.1,8.7C5.9,9,5.7,9.3,5.5,9.5
		C5.4,9.7,5.3,9.8,5.1,10C5,10.1,5,10.2,4.9,10.4c-0.1,0.1-0.2,0.3-0.3,0.4c-0.1,0.1-0.2,0.3-0.3,0.4c-0.2,0.2-0.3,0.3-0.5,0.5
		C3.6,11.8,3.5,12,3.3,12.1z M3.2,13.6c0-0.1,0-0.1,0.1-0.2c0,0.1,0,0.1,0,0.2C3.3,13.6,3.3,13.6,3.2,13.6z M2.1,12.9
		c-0.1,0.1-0.1,0.1-0.2,0c0,0,0,0,0,0C1.9,12.8,1.9,12.8,2.1,12.9c0-0.1,0.1-0.1,0.1-0.2c0-0.1,0.1-0.2,0.1-0.3c0,0,0.1-0.1,0.1-0.1
		c0.1-0.2,0.3-0.4,0.5-0.6c0.2-0.2,0.3-0.4,0.5-0.5c0.2-0.2,0.3-0.4,0.5-0.6c0.1-0.1,0.2-0.2,0.3-0.3c0,0.1,0,0.1-0.1,0.2
		c-0.1,0.2-0.2,0.3-0.4,0.5c-0.3,0.4-0.6,0.8-0.8,1.2c-0.1,0.2-0.3,0.3-0.4,0.5C2.3,12.6,2.2,12.8,2.1,12.9z M1.6,12
		C1.6,12,1.5,11.9,1.6,12c0-0.1,0-0.2,0-0.2c0.1-0.1,0.2-0.3,0.2-0.4C2,11.2,2.1,11,2.2,10.8c0.1-0.1,0.2-0.2,0.2-0.3
		c0.1-0.2,0.2-0.3,0.4-0.5c0,0,0,0,0,0c0,0,0,0,0,0c0,0,0,0,0,0c-0.3,0.4-0.5,0.8-0.7,1.2c-0.1,0.2-0.2,0.4-0.3,0.5
		C1.8,11.9,1.7,11.9,1.6,12z M1.2,11.1C1.1,11.1,1.1,11.1,1.2,11.1C1,11.1,1,11,1,10.9c0,0,0-0.1,0-0.1c0.1-0.1,0.1-0.2,0.2-0.3
		c0.1-0.1,0.2-0.2,0.3-0.3c0,0,0,0,0.1-0.1C1.7,10,1.8,9.8,1.8,9.7C1.9,9.5,2,9.4,2,9.3C2.1,9.2,2.2,9.1,2.3,9
		c0.1-0.1,0.2-0.3,0.2-0.4C2.6,8.3,2.8,8.1,3,7.8c0.1-0.2,0.2-0.4,0.4-0.5C3.5,7.1,3.6,7,3.7,6.8c0.1-0.1,0.1-0.2,0.2-0.1
		C4,6.5,4,6.5,4.1,6.4c0-0.1,0.1-0.1,0.2-0.1c0,0,0.1,0,0.1,0c0-0.1,0.1-0.2,0-0.3c0,0,0,0,0-0.1c0-0.1,0.1-0.1,0.2-0.1
		c0.2,0,0.3,0,0.5,0C5,6,4.9,6.1,5.1,6.2C5.1,6.3,5,6.3,5,6.4c0-0.1,0-0.1,0-0.2c0-0.1,0-0.1-0.1-0.2C4.8,6,4.7,6,4.7,6.1
		C4.6,6.2,4.5,6.3,4.5,6.4C4.3,6.8,4,7.1,3.7,7.4C3.4,7.7,3.1,8,2.9,8.4C2.8,8.7,2.7,8.9,2.5,9.1C2.4,9.3,2.3,9.4,2.3,9.5
		C2.1,9.8,2,10,1.9,10.2C1.7,10.5,1.4,10.8,1.2,11.1z M1.4,7.9C1.4,7.9,1.5,7.9,1.4,7.9c0.1,0,0,0.1-0.1,0.2C1.3,8,1.3,8,1.4,7.9z
		 M1.7,8.4C1.6,8.6,1.5,8.8,1.4,9c0-0.1,0-0.2,0.1-0.3c0-0.1,0.1-0.1,0.1-0.2C1.6,8.5,1.7,8.4,1.7,8.4z M2.2,7.4
		C2.2,7.4,2.2,7.4,2.2,7.4C2.3,7.2,2.4,7.1,2.5,7c0,0,0.1-0.1,0.1-0.1c0-0.1,0-0.1-0.1-0.2c0,0,0,0,0,0c0.1-0.1,0.2-0.1,0.3-0.2
		C2.9,6.4,3,6.3,3.1,6.3C3.3,6.2,3.5,6.1,3.7,6c0,0,0,0,0.1,0c0,0.1-0.1,0.2-0.2,0.2C3.5,6.3,3.5,6.4,3.4,6.5
		C3.4,6.6,3.3,6.6,3.2,6.7c0,0-0.1,0-0.1-0.1c0,0,0,0-0.1-0.1C3,6.5,2.9,6.5,2.9,6.6c0,0.1-0.1,0.2-0.2,0.3C2.5,7.2,2.2,7.5,2,7.9
		c0,0,0,0,0,0C2,7.7,2.1,7.6,2.2,7.4z M4.6,6.8c0.1-0.1,0.2-0.3,0.3-0.4c0,0,0,0,0,0C4.9,6.6,4.8,6.7,4.6,6.8
		C4.6,6.8,4.6,6.8,4.6,6.8z M5.7,6.2C5.7,6.2,5.7,6.2,5.7,6.2C5.7,6.1,5.6,6,5.6,6c-0.1,0-0.1-0.1-0.2,0c0,0-0.1,0-0.1,0.1
		c0-0.1,0-0.1-0.1-0.2c0.1,0,0.1,0,0.2,0c0,0,0.1,0,0.1,0c0.1,0,0.3,0,0.4,0.1C5.9,6,6,6.1,6,6.1C6,6.2,6,6.3,5.9,6.3
		C5.7,6.6,5.4,6.9,5.1,7.2C5,7.2,5,7.4,4.9,7.5C4.7,7.7,4.5,7.9,4.3,8.2C4.2,8.3,4.1,8.5,3.9,8.6C3.8,8.9,3.5,9.1,3.4,9.3
		C3.5,9,3.7,8.7,3.9,8.4c0.2-0.2,0.3-0.5,0.5-0.7C4.6,7.5,4.8,7.3,5,7c0.1-0.1,0.2-0.2,0.3-0.3c0.1-0.1,0.3-0.2,0.4-0.2
		C5.7,6.4,5.8,6.3,5.7,6.2z M6.1,6.7C6.1,6.7,6.2,6.7,6.1,6.7c0.1,0,0.1,0.1,0.1,0.1c0,0,0,0.1-0.1,0.1C6,7.1,5.9,7.4,5.7,7.6
		C5.6,7.7,5.5,7.9,5.3,8.1C5.1,8.5,4.8,8.8,4.5,9C4.3,9.2,4.2,9.4,4,9.6C4,9.7,3.9,9.7,3.9,9.8c-0.2,0.2-0.4,0.4-0.5,0.6
		c-0.2,0.2-0.3,0.4-0.5,0.7c-0.1,0.1-0.2,0.2-0.3,0.4c0-0.1,0.1-0.1,0.1-0.2c0.1-0.1,0.1-0.2,0.2-0.4c0.2-0.3,0.3-0.6,0.5-0.8
		c0.2-0.3,0.4-0.5,0.6-0.8c0.3-0.4,0.6-0.8,0.9-1.1C5,7.9,5.2,7.7,5.4,7.5c0.1-0.1,0.2-0.2,0.3-0.3C5.7,7.1,5.7,7.1,5.8,7
		C5.9,6.9,6,6.9,6.1,6.7C6.1,6.8,6.1,6.7,6.1,6.7z M6.7,6.9c0-0.1,0-0.1,0.1-0.2C6.8,6.8,6.8,7,6.7,6.9C6.7,7,6.7,7,6.7,6.9
		C6.7,7,6.7,7,6.7,6.9z M7.3,6.9c0,0,0.1,0.1,0.1,0.1c0,0,0,0.1,0,0.1c0,0-0.1,0-0.1,0C7.3,7,7.3,6.9,7.3,6.9
		C7.3,6.9,7.3,6.9,7.3,6.9z M9.2,9.2C9.2,9.2,9.2,9.2,9.2,9.2c0-0.1,0-0.1,0-0.2c0-0.2-0.1-0.4-0.1-0.6C8.9,8.2,8.9,7.9,8.7,7.7
		C8.6,7.5,8.5,7.3,8.3,7.2C8.3,7.2,8.2,7.1,8.2,7c0-0.1-0.1-0.1-0.1-0.1C8,6.8,7.9,6.7,7.8,6.6C7.7,6.5,7.7,6.5,7.6,6.4
		C7.5,6.3,7.4,6.3,7.3,6.2c0,0-0.1,0-0.1-0.1C7.1,6.1,7.1,6,7,6C6.8,5.9,6.6,5.8,6.5,5.7C6.4,5.6,6.2,5.5,6.1,5.5
		c-0.1,0-0.2,0-0.2-0.1C5.6,5.3,5.5,5.3,5.3,5.3c0,0,0,0-0.1,0c-0.1,0-0.2,0-0.2,0c-0.1,0-0.3,0-0.4,0c-0.1,0-0.1,0-0.2,0
		C4.1,5.4,3.9,5.4,3.7,5.5c-0.1,0-0.2,0.1-0.3,0.1C3.3,5.7,3.1,5.8,3,5.8c0,0-0.1,0-0.1,0.1C2.8,5.9,2.6,6,2.5,6.1
		C2.4,6.1,2.3,6.2,2.2,6.3C2.1,6.4,2,6.5,1.9,6.6C1.8,6.6,1.8,6.7,1.7,6.8C1.6,6.9,1.5,7,1.4,7C1.3,7.1,1.2,7.2,1.1,7.3
		C1.1,7.3,1,7.4,0.9,7.5C0.9,7.6,0.8,7.6,0.8,7.7c0,0,0,0.1-0.1,0.1C0.6,8,0.6,8.2,0.5,8.4c0,0,0,0,0,0c0,0,0,0.1-0.1,0.1
		c0,0.1,0,0.1,0,0.2c0,0.2-0.1,0.3-0.1,0.5c0,0.1,0,0.2,0,0.2C0.2,9.6,0.2,9.8,0.2,10c0,0.1,0,0.2,0,0.4c0,0.1,0,0.1,0,0.2
		c0,0.1,0,0.2,0,0.2c0.1,0.2,0,0.3,0.1,0.5c0,0,0,0,0,0c0,0.1,0,0.2,0.1,0.3c0,0.1,0.1,0.2,0.1,0.3c0,0,0,0,0,0.1c0,0,0,0.1,0,0.1
		c0,0,0,0,0,0.1c0,0.1,0,0.1,0.1,0.1c0.1,0.1,0.1,0.2,0.2,0.3c0.1,0.1,0.1,0.2,0.1,0.2c0,0.1,0.1,0.1,0.1,0.2c0,0.1,0.1,0.2,0.1,0.2
		c0,0,0,0,0.1,0.1c0,0,0.1,0,0.1,0c0.1,0.1,0.2,0.2,0.3,0.3c0,0,0,0,0.1,0c0.1,0,0.2,0.1,0.4,0.1c0,0,0.1,0,0.1,0
		c0.2,0.1,0.4,0.2,0.7,0.2c0.1,0,0.2,0,0.3,0.1c0.2,0,0.3,0,0.5,0.1c0.2,0.1,0.4,0.1,0.6,0.1c0.1,0,0.3,0,0.4,0c0.1,0,0.2,0,0.2,0
		c0.1,0,0.3-0.1,0.4-0.1c0.1,0,0.1,0,0.2,0c0,0,0,0,0,0c0.1,0,0.3-0.1,0.4-0.2c0,0,0,0,0.1,0c0.2,0,0.3-0.2,0.5-0.3
		c0.1-0.1,0.2-0.2,0.4-0.3C7,13.2,7.1,13.1,7.2,13c0,0,0,0,0,0c0.1-0.1,0.1-0.1,0.2-0.2c0.1-0.1,0.2-0.2,0.3-0.3
		c0,0,0.1-0.1,0.1-0.1c0.1-0.1,0.2-0.2,0.3-0.3c0.1-0.1,0.2-0.1,0.2-0.2c0,0,0.1-0.1,0.1-0.1c0.1-0.1,0.1-0.3,0.1-0.4
		c0-0.1,0.1-0.2,0.2-0.3c0.1-0.1,0.2-0.2,0.2-0.3c0,0,0-0.1,0-0.1c0.1-0.1,0.1-0.2,0.1-0.3c0-0.1,0-0.1,0-0.2c0-0.1,0-0.3,0.1-0.4
		C9.2,9.6,9.2,9.4,9.2,9.2z"/>
</g>
</svg>
